<svg width="50" height="50" viewBox="0 0 50 50" fill="none" xmlns="http://www.w3.org/2000/svg">
<g clip-path="url(#clip0_26_87)">
<path d="M38.8889 2.77783H11.1111C10.3744 2.77783 9.66787 3.07049 9.14694 3.59142C8.626 4.11236 8.33334 4.8189 8.33334 5.55561V44.4445C8.33334 45.1812 8.626 45.8877 9.14694 46.4087C9.66787 46.9296 10.3744 47.2223 11.1111 47.2223H38.8889C39.6256 47.2223 40.3321 46.9296 40.8531 46.4087C41.374 45.8877 41.6667 45.1812 41.6667 44.4445V5.55561C41.6667 4.8189 41.374 4.11236 40.8531 3.59142C40.3321 3.07049 39.6256 2.77783 38.8889 2.77783ZM18.0556 36.1112H15.2778V33.3334H18.0556V36.1112ZM18.0556 30.5556H15.2778V27.7778H18.0556V30.5556ZM18.0556 25.0001H15.2778V22.2223H18.0556V25.0001ZM18.0556 19.4445H15.2778V16.6667H18.0556V19.4445ZM18.0556 13.8889H15.2778V11.1112H18.0556V13.8889ZM34.7222 36.1112H20.8333V33.3334H34.7222V36.1112ZM34.7222 30.5556H20.8333V27.7778H34.7222V30.5556ZM34.7222 25.0001H20.8333V22.2223H34.7222V25.0001ZM34.7222 19.4445H20.8333V16.6667H34.7222V19.4445ZM34.7222 13.8889H20.8333V11.1112H34.7222V13.8889Z" fill="white"/>
</g>
<defs>
<clipPath id="clip0_26_87">
<rect width="50" height="50" fill="white"/>
</clipPath>
</defs>
</svg>
