<svg width="50" height="50" viewBox="0 0 50 50" fill="none" xmlns="http://www.w3.org/2000/svg">
<path d="M31.7104 5.20837C33.7563 5.20837 35.6927 5.67504 37.4177 6.50629L34.0802 9.81879C33.6229 10.2712 33.2599 10.8098 33.0121 11.4034C32.7643 11.997 32.6368 12.6339 32.6368 13.2771C32.6368 13.9204 32.7643 14.5572 33.0121 15.1509C33.2599 15.7445 33.6229 16.2831 34.0802 16.7355C35.0072 17.6529 36.2588 18.1676 37.563 18.1676C38.8673 18.1676 40.1189 17.6529 41.0458 16.7355L44.0177 13.7855C44.5177 15.1625 44.7917 16.648 44.7917 18.1959C44.7917 25.3698 38.9344 31.1844 31.7104 31.1844C29.9813 31.1844 28.3313 30.8511 26.8219 30.2469L13.6146 43.3594C12.6881 44.277 11.4368 44.7918 10.1328 44.7918C8.82883 44.7918 7.57755 44.277 6.65105 43.3594C6.19422 42.9071 5.83157 42.3687 5.58408 41.7754C5.3366 41.182 5.20917 40.5455 5.20917 39.9026C5.20917 39.2598 5.3366 38.6233 5.58408 38.0299C5.83157 37.4366 6.19422 36.8982 6.65105 36.4459L19.7417 23.448C19.0052 21.7951 18.6258 20.0054 18.6281 18.1959C18.6281 11.024 24.4854 5.20837 31.7104 5.20837Z" fill="white" stroke="white" stroke-width="2" stroke-linejoin="round"/>
</svg>
