<svg width="50" height="50" viewBox="0 0 50 50" fill="none" xmlns="http://www.w3.org/2000/svg">
<path d="M22.5521 45.8333C21.6146 45.8333 20.8076 45.5208 20.1312 44.8958C19.4549 44.2708 19.0465 43.5069 18.9062 42.6041L18.4375 39.1666C17.9861 38.993 17.5611 38.7847 17.1625 38.5416C16.7639 38.2986 16.3729 38.0382 15.9896 37.7604L12.7604 39.1145C11.8924 39.4965 11.0243 39.5312 10.1562 39.2187C9.28818 38.9062 8.6111 38.3507 8.12499 37.552L5.67707 33.2812C5.19096 32.4826 5.05207 31.6319 5.26041 30.7291C5.46874 29.8263 5.93749 29.0798 6.66666 28.4895L9.42707 26.4062C9.39235 26.1632 9.37499 25.9284 9.37499 25.702V24.2958C9.37499 24.0708 9.39235 23.8368 9.42707 23.5937L6.66666 21.5104C5.93749 20.9201 5.46874 20.1736 5.26041 19.2708C5.05207 18.368 5.19096 17.5173 5.67707 16.7187L8.12499 12.4479C8.6111 11.6493 9.28818 11.0937 10.1562 10.7812C11.0243 10.4687 11.8924 10.5034 12.7604 10.8854L15.9896 12.2395C16.3715 11.9618 16.7708 11.7013 17.1875 11.4583C17.6042 11.2152 18.0208 11.0069 18.4375 10.8333L18.9062 7.39579C19.0451 6.49301 19.4535 5.72913 20.1312 5.10413C20.809 4.47913 21.616 4.16663 22.5521 4.16663H27.4479C28.3854 4.16663 29.193 4.47913 29.8708 5.10413C30.5486 5.72913 30.9562 6.49301 31.0937 7.39579L31.5625 10.8333C32.0139 11.0069 32.4396 11.2152 32.8396 11.4583C33.2396 11.7013 33.6299 11.9618 34.0104 12.2395L37.2396 10.8854C38.1076 10.5034 38.9757 10.4687 39.8437 10.7812C40.7118 11.0937 41.3889 11.6493 41.875 12.4479L44.3229 16.7187C44.809 17.5173 44.9479 18.368 44.7396 19.2708C44.5312 20.1736 44.0625 20.9201 43.3333 21.5104L40.5729 23.5937C40.6076 23.8368 40.625 24.0715 40.625 24.2979V25.702C40.625 25.9284 40.5903 26.1632 40.5208 26.4062L43.2812 28.4895C44.0104 29.0798 44.4792 29.8263 44.6875 30.7291C44.8958 31.6319 44.7569 32.4826 44.2708 33.2812L41.7708 37.552C41.2847 38.3507 40.6076 38.9062 39.7396 39.2187C38.8715 39.5312 38.0035 39.4965 37.1354 39.1145L34.0104 37.7604C33.6285 38.0382 33.2292 38.2986 32.8125 38.5416C32.3958 38.7847 31.9792 38.993 31.5625 39.1666L31.0937 42.6041C30.9548 43.5069 30.5472 44.2708 29.8708 44.8958C29.1944 45.5208 28.3868 45.8333 27.4479 45.8333H22.5521ZM25.1042 32.2916C27.118 32.2916 28.8368 31.5798 30.2604 30.1562C31.684 28.7326 32.3958 27.0138 32.3958 25C32.3958 22.9861 31.684 21.2673 30.2604 19.8437C28.8368 18.4201 27.118 17.7083 25.1042 17.7083C23.0555 17.7083 21.3278 18.4201 19.9208 19.8437C18.5139 21.2673 17.8111 22.9861 17.8125 25C17.8139 27.0138 18.5174 28.7326 19.9229 30.1562C21.3285 31.5798 23.0555 32.2916 25.1042 32.2916Z" fill="white"/>
</svg>
