<svg width="50" height="50" viewBox="0 0 50 50" fill="none" xmlns="http://www.w3.org/2000/svg">
<path d="M7.8125 3.125C7.3981 3.125 7.00067 3.28962 6.70765 3.58265C6.41462 3.87567 6.25 4.2731 6.25 4.6875V7.8125C6.25 8.2269 6.41462 8.62433 6.70765 8.91735C7.00067 9.21038 7.3981 9.375 7.8125 9.375H12.5V42.1875C12.4994 42.4969 12.5908 42.7996 12.7624 43.057C12.9341 43.3145 13.1783 43.5152 13.4642 43.6337C13.75 43.7522 14.0646 43.7831 14.3681 43.7226C14.6716 43.6621 14.9502 43.5128 15.1688 43.2938L18.75 39.7094V42.1875C18.75 42.6019 18.9146 42.9993 19.2076 43.2924C19.5007 43.5854 19.8981 43.75 20.3125 43.75C20.7269 43.75 21.1243 43.5854 21.4174 43.2924C21.7104 42.9993 21.875 42.6019 21.875 42.1875V9.375H34.375V23.4375C34.375 23.8519 34.5396 24.2493 34.8326 24.5424C35.1257 24.8354 35.5231 25 35.9375 25C36.2483 24.9964 36.5531 25.0859 36.8125 25.257C37.072 25.4282 37.2742 25.6731 37.3933 25.9602C37.5123 26.2473 37.5426 26.5635 37.4803 26.868C37.418 27.1725 37.266 27.4514 37.0438 27.6688C36.8271 27.8926 36.5481 28.046 36.243 28.1093C35.938 28.1725 35.621 28.1425 35.3332 28.0232C35.0454 27.9039 34.8001 27.7008 34.6293 27.4403C34.4584 27.1798 34.3698 26.874 34.375 26.5625C34.375 26.1481 34.2104 25.7507 33.9174 25.4576C33.6243 25.1646 33.2269 25 32.8125 25C32.3981 25 32.0007 25.1646 31.7076 25.4576C31.4146 25.7507 31.25 26.1481 31.25 26.5625C31.25 28.4531 32.3969 30.1719 34.1437 30.8969C35.0005 31.2475 35.9418 31.3371 36.8494 31.1545C37.757 30.9718 38.5903 30.5251 39.2448 29.8703C39.8992 29.2155 40.3456 28.3819 40.5277 27.4743C40.7099 26.5666 40.6198 25.6254 40.2687 24.7688C39.7656 23.5438 38.7 22.8 37.5 22.35V9.375H42.1875C42.6019 9.375 42.9993 9.21038 43.2924 8.91735C43.5854 8.62433 43.75 8.2269 43.75 7.8125C43.75 7.3981 43.5854 7.00067 43.2924 6.70765C42.9993 6.41462 42.6019 6.25 42.1875 6.25H27.2094L24.5406 3.58437C24.2483 3.29114 23.8515 3.12592 23.4375 3.125H7.8125ZM15.625 11.5844L18.75 14.7094V16.5406L15.625 19.6656V11.5844ZM18.75 20.9594V29.0406L15.625 25.9156V24.0844L18.75 20.9594ZM15.625 30.3344L18.75 33.4594V35.2906L15.625 38.4156V30.3344Z" fill="white"/>
</svg>
