<svg width="50" height="50" viewBox="0 0 50 50" fill="none" xmlns="http://www.w3.org/2000/svg">
<path fill-rule="evenodd" clip-rule="evenodd" d="M18.2292 4.19371V45.8333H31.25C37.1417 45.8333 40.0896 45.8333 41.9188 44.002C43.75 42.1729 43.75 39.225 43.75 33.3333V16.6666C43.75 10.775 43.75 7.82704 41.9188 5.99788C40.0896 4.16663 37.1417 4.16663 31.25 4.16663H18.75L18.2292 4.19371ZM22.3959 13.5416C22.3959 13.1272 22.5605 12.7298 22.8535 12.4368C23.1465 12.1437 23.544 11.9791 23.9584 11.9791H34.375C34.7894 11.9791 35.1868 12.1437 35.4799 12.4368C35.7729 12.7298 35.9375 13.1272 35.9375 13.5416C35.9375 13.956 35.7729 14.3535 35.4799 14.6465C35.1868 14.9395 34.7894 15.1041 34.375 15.1041H23.9584C23.544 15.1041 23.1465 14.9395 22.8535 14.6465C22.5605 14.3535 22.3959 13.956 22.3959 13.5416ZM22.3959 20.8333C22.3959 20.4189 22.5605 20.0215 22.8535 19.7284C23.1465 19.4354 23.544 19.2708 23.9584 19.2708H34.375C34.7894 19.2708 35.1868 19.4354 35.4799 19.7284C35.7729 20.0215 35.9375 20.4189 35.9375 20.8333C35.9375 21.2477 35.7729 21.6451 35.4799 21.9381C35.1868 22.2312 34.7894 22.3958 34.375 22.3958H23.9584C23.544 22.3958 23.1465 22.2312 22.8535 21.9381C22.5605 21.6451 22.3959 21.2477 22.3959 20.8333ZM6.25002 15.1041C6.26669 10.2375 6.41877 7.65829 8.08127 5.99788C9.48752 4.59163 11.5521 4.26454 15.1042 4.18954V45.8104C11.5521 45.7354 9.48752 45.4083 8.08127 44.002C6.41877 42.3416 6.26669 39.7625 6.2521 34.8958H8.33335C8.74775 34.8958 9.14518 34.7312 9.43821 34.4382C9.73123 34.1451 9.89585 33.7477 9.89585 33.3333C9.89585 32.9189 9.73123 32.5215 9.43821 32.2284C9.14518 31.9354 8.74775 31.7708 8.33335 31.7708H6.25002V26.5625H8.33335C8.74775 26.5625 9.14518 26.3978 9.43821 26.1048C9.73123 25.8118 9.89585 25.4144 9.89585 25C9.89585 24.5856 9.73123 24.1881 9.43821 23.8951C9.14518 23.6021 8.74775 23.4375 8.33335 23.4375H6.25002V18.2291H8.33335C8.74775 18.2291 9.14518 18.0645 9.43821 17.7715C9.73123 17.4785 9.89585 17.081 9.89585 16.6666C9.89585 16.2522 9.73123 15.8548 9.43821 15.5618C9.14518 15.2687 8.74775 15.1041 8.33335 15.1041H6.25002ZM6.25002 15.1041H4.16669C3.75229 15.1041 3.35486 15.2687 3.06183 15.5618C2.76881 15.8548 2.60419 16.2522 2.60419 16.6666C2.60419 17.081 2.76881 17.4785 3.06183 17.7715C3.35486 18.0645 3.75229 18.2291 4.16669 18.2291H6.25002V15.1041ZM6.25002 26.5625H4.16669C3.75229 26.5625 3.35486 26.3978 3.06183 26.1048C2.76881 25.8118 2.60419 25.4144 2.60419 25C2.60419 24.5856 2.76881 24.1881 3.06183 23.8951C3.35486 23.6021 3.75229 23.4375 4.16669 23.4375H6.25002V26.5625ZM6.25002 31.7708H4.16669C3.75229 31.7708 3.35486 31.9354 3.06183 32.2284C2.76881 32.5215 2.60419 32.9189 2.60419 33.3333C2.60419 33.7477 2.76881 34.1451 3.06183 34.4382C3.35486 34.7312 3.75229 34.8958 4.16669 34.8958H6.2521L6.25002 31.7708Z" fill="white"/>
</svg>
