<svg width="50" height="50" viewBox="0 0 50 50" fill="none" xmlns="http://www.w3.org/2000/svg">
<path d="M36.6208 9.23329L32.4542 7.04579C28.7959 5.12704 26.9667 4.16663 25 4.16663C23.0334 4.16663 21.2042 5.12496 17.5459 7.04579L16.8771 7.39788L35.4667 18.0208L43.8334 13.8333C42.4875 12.3083 40.3167 11.1687 36.6208 9.22913M45.3083 16.5916L36.9792 20.7583V27.0833C36.9792 27.4977 36.8146 27.8951 36.5215 28.1881C36.2285 28.4812 35.8311 28.6458 35.4167 28.6458C35.0023 28.6458 34.6049 28.4812 34.3118 28.1881C34.0188 27.8951 33.8542 27.4977 33.8542 27.0833V22.3208L26.5625 25.9666V45.6333C28.0584 45.2604 29.7604 44.3687 32.4542 42.9541L36.6208 40.7666C41.1021 38.4145 43.3438 37.2395 44.5896 35.125C45.8334 33.0125 45.8334 30.3812 45.8334 25.125V24.8812C45.8334 20.9375 45.8334 18.4708 45.3083 16.5916ZM23.4375 45.6333V25.9666L4.69169 16.5916C4.16669 18.4708 4.16669 20.9375 4.16669 24.877V25.1208C4.16669 30.3812 4.16669 33.0125 5.41044 35.125C6.65627 37.2395 8.89794 38.4166 13.3792 40.7687L17.5459 42.9541C20.2396 44.3687 21.9417 45.2604 23.4375 45.6333ZM6.16669 13.8354L25 23.252L32.1063 19.7L13.5938 9.12079L13.3792 9.23329C9.68544 11.1708 7.51252 12.3104 6.16669 13.8375" fill="white"/>
</svg>
