<svg width="42" height="42" viewBox="0 0 42 42" fill="none" xmlns="http://www.w3.org/2000/svg">
<rect width="42" height="42" rx="10" fill="#D35D2D"/>
<path d="M24.9958 9.625C25.977 9.625 26.6338 10.556 26.4098 11.4485L26.3526 11.627L23.905 17.9083H26.8333C27.9825 17.9083 28.6206 19.138 28.1166 20.0713L28 20.2533L19.285 31.9748C18.655 32.8207 17.3938 32.2362 17.5035 31.269L18.4193 23.2073H15.1666C14.1085 23.2073 13.4318 22.1293 13.8191 21.1832L13.825 21.1703L18.382 10.521C18.4927 10.256 18.6792 10.0296 18.9181 9.87025C19.157 9.71085 19.4376 9.62554 19.7248 9.625H24.9958Z" fill="white"/>
</svg>
