<svg width="42" height="42" viewBox="0 0 42 42" fill="none" xmlns="http://www.w3.org/2000/svg">
<rect width="42" height="42" rx="10" fill="#D35D2D"/>
<path fill-rule="evenodd" clip-rule="evenodd" d="M16.864 9.95605C14.974 9.95605 13.132 10.2521 11.44 10.5221L10.826 10.6201C10.1424 10.7265 9.51448 11.06 9.04353 11.5669C8.57259 12.0738 8.28602 12.7244 8.23001 13.4141L8.12601 14.6901C8.02601 15.9001 7.92601 17.1461 7.85001 18.4161C7.84651 18.4819 7.85607 18.5478 7.87813 18.6099C7.9002 18.672 7.93433 18.7292 7.97857 18.7781C8.02281 18.827 8.07629 18.8666 8.13592 18.8948C8.19555 18.9229 8.26015 18.939 8.32601 18.9421C11.126 19.0581 13.976 19.1461 16.864 19.1461C19.752 19.1461 22.6 19.0581 25.4 18.9401C25.4659 18.937 25.5305 18.9209 25.5901 18.8928C25.6497 18.8646 25.7032 18.825 25.7475 18.7761C25.7917 18.7272 25.8258 18.67 25.8479 18.6079C25.87 18.5458 25.8795 18.4799 25.876 18.4141C25.7975 17.1718 25.7055 15.9304 25.6 14.6901L25.5 13.4141C25.4438 12.7239 25.1567 12.0727 24.6849 11.5658C24.2132 11.0589 23.5844 10.7257 22.9 10.6201L22.288 10.5221C20.596 10.2521 18.752 9.95605 16.864 9.95605ZM7.72801 21.9341C7.72801 21.6521 7.96401 21.4301 8.24601 21.4421C11.056 21.5581 13.936 21.6461 16.864 21.6461C19.792 21.6461 22.67 21.5581 25.482 21.4421C25.5485 21.4397 25.6148 21.4505 25.677 21.4741C25.7393 21.4976 25.7962 21.5334 25.8444 21.5792C25.8927 21.625 25.9313 21.68 25.958 21.7409C25.9847 21.8019 25.999 21.8675 26 21.9341V22.1801C25.9897 23.9382 25.915 25.6954 25.776 27.4481C26.096 27.7881 26.366 28.1441 26.586 28.4481C26.7892 28.7319 27.0773 28.9439 27.4087 29.0534C27.7401 29.163 28.0978 29.1645 28.4301 29.0577C28.7624 28.951 29.0523 28.7414 29.2579 28.4593C29.4635 28.1772 29.5742 27.8371 29.574 27.4881V16.8401C29.574 15.3201 30.202 13.8681 31.312 12.8281L32.232 11.9681C32.5233 11.7028 32.9073 11.5628 33.301 11.5783C33.6947 11.5939 34.0665 11.7637 34.336 12.0511C34.6055 12.3384 34.7512 12.7203 34.7414 13.1142C34.7317 13.5081 34.5674 13.8823 34.284 14.1561L33.364 15.0161C33.1146 15.2499 32.9158 15.5324 32.7799 15.8462C32.6441 16.1599 32.574 16.4982 32.574 16.8401V17.8621H33.258C33.6558 17.8621 34.0374 18.0201 34.3187 18.3014C34.6 18.5827 34.758 18.9642 34.758 19.3621C34.758 19.7599 34.6 20.1414 34.3187 20.4227C34.0374 20.704 33.6558 20.8621 33.258 20.8621H32.574V27.4901C32.5743 28.3235 32.3505 29.1418 31.9259 29.8591C31.5014 30.5763 30.8918 31.1663 30.161 31.567C29.4302 31.9678 28.605 32.1647 27.772 32.1371C26.939 32.1095 26.1287 31.8584 25.426 31.4101C25.2829 32.0049 24.9665 32.5438 24.5168 32.9586C24.0671 33.3734 23.5044 33.6454 22.9 33.7401C22.7 33.7707 22.496 33.8041 22.288 33.8401C20.596 34.1081 18.752 34.4041 16.864 34.4041C14.976 34.4041 13.132 34.1081 11.44 33.8381L10.826 33.7401C10.1424 33.6336 9.51448 33.3001 9.04353 32.7932C8.57259 32.2863 8.28602 31.6357 8.23001 30.9461L8.12601 29.6701C7.93201 27.2841 7.72601 24.7621 7.72601 22.1821L7.72801 21.9341ZM15.074 13.5941C14.7425 13.5941 14.4246 13.7258 14.1901 13.9602C13.9557 14.1946 13.824 14.5125 13.824 14.8441C13.824 15.1756 13.9557 15.4935 14.1901 15.7279C14.4246 15.9624 14.7425 16.0941 15.074 16.0941H18.654C18.9855 16.0941 19.3035 15.9624 19.5379 15.7279C19.7723 15.4935 19.904 15.1756 19.904 14.8441C19.904 14.5125 19.7723 14.1946 19.5379 13.9602C19.3035 13.7258 18.9855 13.5941 18.654 13.5941H15.074Z" fill="white"/>
</svg>
