<svg width="42" height="42" viewBox="0 0 42 42" fill="none" xmlns="http://www.w3.org/2000/svg">
<rect width="42" height="42" rx="10" fill="#D35D2D"/>
<path d="M21 9.33337C18.834 9.33337 16.7568 10.1938 15.2253 11.7253C13.6937 13.2569 12.8333 15.3341 12.8333 17.5C12.8333 20.2767 14.2216 22.715 16.3333 24.1967V26.8334C16.3333 27.1428 16.4562 27.4395 16.675 27.6583C16.8938 27.8771 17.1906 28 17.5 28H24.5C24.8094 28 25.1061 27.8771 25.3249 27.6583C25.5437 27.4395 25.6666 27.1428 25.6666 26.8334V24.1967C27.7783 22.715 29.1666 20.2767 29.1666 17.5C29.1666 15.3341 28.3062 13.2569 26.7747 11.7253C25.2431 10.1938 23.1659 9.33337 21 9.33337ZM17.5 31.5C17.5 31.8095 17.6229 32.1062 17.8417 32.325C18.0605 32.5438 18.3572 32.6667 18.6666 32.6667H23.3333C23.6427 32.6667 23.9395 32.5438 24.1583 32.325C24.3771 32.1062 24.5 31.8095 24.5 31.5V30.3334H17.5V31.5Z" fill="white"/>
</svg>
