<svg width="42" height="42" viewBox="0 0 42 42" fill="none" xmlns="http://www.w3.org/2000/svg">
<rect width="42" height="42" rx="10" fill="#D35D2D"/>
<path d="M32.8125 29.75C32.8125 30.0981 32.6742 30.4319 32.4281 30.6781C32.1819 30.9242 31.8481 31.0625 31.5 31.0625H10.5C10.1519 31.0625 9.81806 30.9242 9.57192 30.6781C9.32578 30.4319 9.1875 30.0981 9.1875 29.75V12.25C9.1875 11.9019 9.32578 11.5681 9.57192 11.3219C9.81806 11.0758 10.1519 10.9375 10.5 10.9375C10.8481 10.9375 11.1819 11.0758 11.4281 11.3219C11.6742 11.5681 11.8125 11.9019 11.8125 12.25V23.0781L16.5714 18.3181C16.6933 18.1958 16.8382 18.0987 16.9978 18.0324C17.1573 17.9662 17.3284 17.9321 17.5011 17.9321C17.6738 17.9321 17.8449 17.9662 18.0044 18.0324C18.164 18.0987 18.3088 18.1958 18.4308 18.3181L21 20.8906L25.7031 16.1875H24.5C24.1519 16.1875 23.8181 16.0492 23.5719 15.8031C23.3258 15.5569 23.1875 15.2231 23.1875 14.875C23.1875 14.5269 23.3258 14.1931 23.5719 13.9469C23.8181 13.7008 24.1519 13.5625 24.5 13.5625H28.875C29.2231 13.5625 29.5569 13.7008 29.8031 13.9469C30.0492 14.1931 30.1875 14.5269 30.1875 14.875V19.25C30.1875 19.5981 30.0492 19.9319 29.8031 20.1781C29.5569 20.4242 29.2231 20.5625 28.875 20.5625C28.5269 20.5625 28.1931 20.4242 27.9469 20.1781C27.7008 19.9319 27.5625 19.5981 27.5625 19.25V18.0469L21.9286 23.6819C21.8067 23.8042 21.6618 23.9013 21.5022 23.9676C21.3427 24.0338 21.1716 24.0679 20.9989 24.0679C20.8262 24.0679 20.6551 24.0338 20.4956 23.9676C20.336 23.9013 20.1912 23.8042 20.0692 23.6819L17.5 21.1094L11.8125 26.7969V28.4375H31.5C31.8481 28.4375 32.1819 28.5758 32.4281 28.8219C32.6742 29.0681 32.8125 29.4019 32.8125 29.75Z" fill="white"/>
</svg>
