<svg xmlns="http://www.w3.org/2000/svg" width="141.176" height="179.456"><path fill="none" stroke="#B2B2B2" stroke-miterlimit="10" d="M139.508 6.044H17.155M138.824 45.088H16.471M138.824 84.509H16.471M138.824 124H16.471"/><path fill="#2F5F98" d="M133.505 21H92.613a5.318 5.318 0 01-5.319-5.319v-4.824a5.318 5.318 0 015.319-5.319h40.891a5.318 5.318 0 015.319 5.319v4.824A5.318 5.318 0 01133.505 21z"/><path fill="#2D8BBA" d="M87.294 13.215h51.529v25.609H87.294z"/><path fill="#41B8D5" d="M87.294 37.215h51.529v33.02H87.294z"/><path fill="#6CE5E8" d="M87.294 69.176h51.529v94.588H87.294z"/><path fill="#2D8BBA" d="M65.681 82.647H24.79a5.318 5.318 0 01-5.319-5.319V61.387a5.318 5.318 0 015.319-5.319h40.891A5.318 5.318 0 0171 61.387v15.941a5.318 5.318 0 01-5.319 5.319z"/><path fill="#41B8D5" d="M19.471 71.529H71v22.235H19.471z"/><path fill="#6CE5E8" d="M19.471 91.765H71v72H19.471z"/><path fill="none" stroke="#B2B2B2" stroke-miterlimit="10" d="M138.824 163.765H16.471"/><path fill="#878787" d="M14.478 163.468c0 1.959-.735 3.041-2.003 3.041-1.126 0-1.897-1.055-1.915-2.961 0-1.941.842-2.997 2.013-2.997 1.204 0 1.905 1.082 1.905 2.917zm-3.129.089c0 1.498.461 2.35 1.17 2.35.789 0 1.17-.932 1.17-2.403 0-1.418-.354-2.349-1.17-2.349-.674-.001-1.17.832-1.17 2.402z"/><g fill="#1D1D1B"><path d="M29.601 166.958v4.062h-.53v-3.622h-1.887v3.622h-.53v-4.062h2.947zM30.498 169.056c0-.374-.012-.675-.024-.952h.47l.03.5h.012c.211-.355.561-.561 1.037-.561.711 0 1.242.597 1.242 1.477 0 1.049-.645 1.567-1.332 1.567-.386 0-.723-.169-.898-.458h-.012v1.585h-.524v-3.158zm.524.777a.819.819 0 00.82.838c.561 0 .886-.458.886-1.127 0-.579-.307-1.079-.868-1.079a.836.836 0 00-.802.651.864.864 0 00-.036.211v.506zM34.227 169.658c.012.718.464 1.013 1 1.013.38 0 .615-.066.808-.15l.097.38a2.387 2.387 0 01-.977.187c-.898 0-1.435-.597-1.435-1.477s.519-1.567 1.368-1.567c.958 0 1.206.832 1.206 1.368 0 .108-.006.187-.018.247h-2.049zm1.555-.38c.006-.331-.139-.855-.735-.855-.542 0-.771.488-.814.855h1.549zM39.233 168.103v2.52l.301.006-.03 1.313h-.416l-.024-.922h-2.019l-.03.922h-.41l-.024-1.308.247-.012c.126-.188.223-.386.289-.597.115-.362.169-.754.169-1.164v-.759h1.947zm-1.483.88c0 .392-.048.766-.15 1.091-.061.199-.139.38-.229.542h1.344v-2.109h-.965v.476zM42.419 168.103v2.917h-.53v-2.501h-1v.747c0 .819-.079 1.368-.458 1.615-.145.114-.308.181-.579.181l-.054-.416a.653.653 0 00.289-.12c.271-.199.301-.608.301-1.26v-1.163h2.031zM45.924 169.538c0 1.078-.753 1.549-1.453 1.549-.784 0-1.398-.579-1.398-1.501 0-.971.645-1.543 1.447-1.543.838 0 1.404.608 1.404 1.495zm-2.308.03c0 .639.362 1.121.88 1.121.506 0 .886-.477.886-1.134 0-.494-.247-1.115-.874-1.115-.621 0-.892.579-.892 1.128zM46.796 168.103l.971 1.271h.102v-1.271h.506v1.271h.103l.964-1.271h.609L48.9 169.43c.44.048.699.307.874.771.103.283.199.59.319.819h-.53a4.216 4.216 0 01-.265-.669c-.181-.477-.452-.621-.832-.621h-.09v1.29h-.506v-1.29h-.09c-.416 0-.663.151-.844.627-.096.253-.175.482-.271.663h-.519c.126-.235.223-.542.326-.813.181-.471.434-.729.874-.777l-1.151-1.326h.601zM50.833 169.658c.012.718.464 1.013 1 1.013.38 0 .615-.066.808-.15l.097.38a2.387 2.387 0 01-.977.187c-.898 0-1.435-.597-1.435-1.477s.519-1.567 1.368-1.567c.958 0 1.206.832 1.206 1.368 0 .108-.006.187-.018.247h-2.049zm1.555-.38c.006-.331-.139-.855-.735-.855-.542 0-.771.488-.814.855h1.549zM54.073 168.103v1.175h1.38v-1.175h.53v2.917h-.53v-1.32h-1.38v1.32h-.53v-2.917h.53zM57.344 168.103v1.229c0 .458-.012.753-.036 1.169l.018.006c.181-.355.277-.561.476-.897l.91-1.507h.621v2.917h-.506v-1.235c0-.477.012-.724.036-1.199h-.012c-.193.379-.313.614-.488.91-.277.451-.603 1.012-.91 1.524h-.615v-2.917h.506zM60.494 169.658c.012.718.464 1.013 1 1.013.38 0 .615-.066.808-.15l.097.38a2.387 2.387 0 01-.977.187c-.898 0-1.435-.597-1.435-1.477s.519-1.567 1.368-1.567c.958 0 1.206.832 1.206 1.368 0 .108-.006.187-.018.247h-2.049zm1.555-.38c.006-.331-.139-.855-.735-.855-.542 0-.771.488-.814.855h1.549zM23.896 176.743l.808 1.108h-.434l-.795-1.108.795-1.109h.428l-.802 1.109zm.988 0l.802 1.108h-.428l-.796-1.108.796-1.109h.428l-.802 1.109zM26.575 175.972h1.886c-.066-.79-.548-1.404-1.386-1.404-.332 0-.615.09-.874.198l-.126-.397a2.47 2.47 0 011.031-.235c1.271 0 1.923.923 1.923 2.098 0 1.338-.874 2.098-1.959 2.098a2.7 2.7 0 01-1.061-.205l.115-.422c.235.108.572.187.88.187.892 0 1.429-.65 1.465-1.494h-1.893v-.424zM30.207 175.345v1.175h1.38v-1.175h.53v2.917h-.53v-1.32h-1.38v1.32h-.53v-2.917h.53zM33.285 176.899c.012.718.464 1.013 1 1.013.38 0 .615-.066.808-.15l.097.38a2.387 2.387 0 01-.977.187c-.898 0-1.435-.597-1.435-1.477s.519-1.567 1.368-1.567c.958 0 1.206.832 1.206 1.368 0 .108-.006.187-.018.247h-2.049zm1.555-.38c.006-.331-.139-.855-.735-.855-.542 0-.771.488-.814.855h1.549zM36.013 176.297c0-.374-.012-.675-.024-.952h.47l.03.5h.012c.211-.355.561-.561 1.037-.561.711 0 1.242.597 1.242 1.477 0 1.049-.645 1.567-1.332 1.567-.386 0-.723-.169-.898-.458h-.012v1.585h-.524v-3.158zm.524.777a.819.819 0 00.82.838c.561 0 .886-.458.886-1.127 0-.579-.307-1.079-.868-1.079a.836.836 0 00-.802.651.864.864 0 00-.036.211v.506zM41.224 175.345v.422h-1.266v2.495h-.524v-2.917h1.79zM42.215 175.345v1.229c0 .458-.012.753-.036 1.169l.018.006c.181-.355.277-.561.476-.897l.91-1.507h.621v2.917h-.506v-1.235c0-.477.012-.724.037-1.199h-.012c-.193.379-.313.614-.488.91-.277.451-.603 1.012-.91 1.524h-.615v-2.917h.505zM45.559 175.345v1.229c0 .458-.012.753-.036 1.169l.018.006c.181-.355.277-.561.476-.897l.91-1.507h.621v2.917h-.506v-1.235c0-.477.012-.724.036-1.199h-.012c-.193.379-.313.614-.488.91-.277.451-.603 1.012-.91 1.524h-.615v-2.917h.506zM52.652 174.199v4.062h-.53v-3.622h-1.887v3.622h-.53v-4.062h2.947zM55.773 175.345v2.917h-.53v-2.501h-1v.747c0 .819-.079 1.368-.458 1.615-.145.114-.308.181-.579.181l-.054-.416a.653.653 0 00.289-.12c.271-.199.301-.608.301-1.26v-1.163h2.031zM57.145 175.345v1.229h.5c.09-.771.59-1.29 1.29-1.29.766 0 1.284.597 1.284 1.495 0 .946-.579 1.549-1.314 1.549-.705 0-1.211-.519-1.271-1.351h-.488v1.284h-.519v-2.917h.518zm2.543 1.446c0-.542-.247-1.109-.766-1.109-.512 0-.783.549-.783 1.14 0 .566.259 1.115.777 1.115.531-.001.772-.591.772-1.146zM62.972 178.159a2.057 2.057 0 01-.838.169c-.88 0-1.453-.597-1.453-1.489 0-.897.615-1.555 1.567-1.555.313 0 .591.078.735.157l-.121.403a1.299 1.299 0 00-.615-.139c-.669 0-1.03.5-1.03 1.104 0 .675.434 1.091 1.012 1.091.302 0 .5-.072.651-.139l.092.398zM63.3 175.634h.422l.802 1.109-.802 1.108H63.3l.802-1.108-.802-1.109zm.977 0h.428l.802 1.109-.802 1.108h-.422l.802-1.108-.808-1.109z"/></g><g fill="#1D1D1B"><path d="M92.795 170.893c-.187.097-.578.193-1.072.193-1.146 0-2.002-.724-2.002-2.062 0-1.277.862-2.134 2.122-2.134.5 0 .825.108.964.181l-.132.429a1.856 1.856 0 00-.814-.169c-.952 0-1.585.608-1.585 1.676 0 1 .573 1.633 1.556 1.633.325 0 .65-.066.861-.169l.102.422zM93.444 169.056c0-.374-.013-.675-.024-.952h.471l.029.5h.013c.211-.355.561-.561 1.036-.561.712 0 1.242.597 1.242 1.477 0 1.049-.646 1.567-1.332 1.567-.386 0-.724-.169-.898-.458h-.012v1.585h-.524v-3.158zm.524.777a.819.819 0 00.819.838c.561 0 .886-.458.886-1.127 0-.579-.307-1.079-.867-1.079a.836.836 0 00-.802.651.819.819 0 00-.036.211v.506zM97.172 169.658c.013.718.464 1.013 1.001 1.013.38 0 .614-.066.808-.15l.097.38a2.39 2.39 0 01-.977.187c-.898 0-1.435-.597-1.435-1.477s.519-1.567 1.368-1.567c.958 0 1.205.832 1.205 1.368 0 .108-.006.187-.018.247h-2.049zm1.556-.38c.006-.331-.139-.855-.735-.855-.543 0-.771.488-.814.855h1.549zM102.179 168.103v2.52l.301.006-.03 1.313h-.415l-.024-.922h-2.02l-.029.922h-.41l-.024-1.308.247-.012a2.24 2.24 0 00.289-.597c.115-.362.169-.754.169-1.164v-.759h1.946zm-1.483.88c0 .392-.048.766-.15 1.091-.061.199-.139.38-.229.542h1.344v-2.109h-.965v.476zM103.629 168.103v1.175h1.38v-1.175h.53v2.917h-.53v-1.32h-1.38v1.32h-.53v-2.917h.53zM106.708 169.658c.012.718.464 1.013 1 1.013.38 0 .615-.066.808-.15l.097.38a2.387 2.387 0 01-.977.187c-.897 0-1.435-.597-1.435-1.477s.519-1.567 1.368-1.567c.959 0 1.206.832 1.206 1.368 0 .108-.006.187-.019.247h-2.048zm1.554-.38c.006-.331-.139-.855-.735-.855-.542 0-.771.488-.813.855h1.548zM109.435 169.056c0-.374-.012-.675-.023-.952h.47l.03.5h.012c.211-.355.561-.561 1.037-.561.711 0 1.241.597 1.241 1.477 0 1.049-.645 1.567-1.332 1.567-.386 0-.723-.169-.897-.458h-.013v1.585h-.524v-3.158zm.525.777a.819.819 0 00.82.838c.561 0 .886-.458.886-1.127 0-.579-.308-1.079-.868-1.079a.837.837 0 00-.802.651.864.864 0 00-.036.211v.506zM113.381 168.103v.988c.108-.019.277-.036.47-.036.627 0 1.266.259 1.266.982 0 .308-.12.519-.307.675-.319.271-.79.338-1.176.338-.289 0-.561-.019-.783-.042v-2.905h.53zm-.005 2.543c.108.019.223.024.367.024.41 0 .844-.163.844-.621 0-.47-.422-.614-.819-.614-.15 0-.283.012-.392.036v1.175zm2.633-2.543v2.917h-.524v-2.917h.524zM117.394 168.103v1.175h1.38v-1.175h.53v2.917h-.53v-1.32h-1.38v1.32h-.53v-2.917h.53zM122.817 169.538c0 1.078-.754 1.549-1.453 1.549-.783 0-1.398-.579-1.398-1.501 0-.971.646-1.543 1.447-1.543.837 0 1.404.608 1.404 1.495zm-2.309.03c0 .639.361 1.121.88 1.121.506 0 .886-.477.886-1.134 0-.494-.247-1.115-.874-1.115-.621 0-.892.579-.892 1.128zM123.912 168.103v.982c0 .373.139.621.603.621.229 0 .47-.085.627-.199v-1.404h.524v2.953h-.524v-1.175h-.007a1.615 1.615 0 01-.795.217c-.549 0-.959-.283-.959-.946v-1.049h.531zM127.049 168.103v1.175h1.38v-1.175h.53v2.917h-.53v-1.32h-1.38v1.32h-.53v-2.917h.53zM131.881 170.321c0 .253.012.5.042.699h-.477l-.042-.367h-.018a1.089 1.089 0 01-.893.434c-.591 0-.892-.416-.892-.838 0-.705.627-1.091 1.754-1.085v-.061c0-.234-.066-.675-.663-.669-.277 0-.561.078-.766.217l-.12-.355c.24-.15.597-.253.964-.253.893 0 1.109.608 1.109 1.188v1.09zm-.512-.789c-.578-.013-1.235.09-1.235.656 0 .35.229.507.494.507a.735.735 0 00.717-.488.572.572 0 00.024-.169v-.506zM134.911 171.02h-.524v-1.224h-.392c-.224 0-.374.061-.482.169-.223.175-.301.53-.416.813a1.746 1.746 0 01-.12.241h-.566c.066-.097.126-.205.181-.331.126-.284.198-.663.458-.881a.754.754 0 01.331-.168v-.013c-.38-.042-.771-.277-.771-.729 0-.302.163-.507.386-.634.241-.145.597-.198.982-.198.344 0 .682.023.935.061v2.894zm-.525-2.567a2.846 2.846 0 00-.44-.03c-.355 0-.789.103-.789.506 0 .374.464.513.777.513h.452v-.989zM101.964 178.159a2.057 2.057 0 01-.838.169c-.88 0-1.452-.597-1.452-1.489 0-.897.614-1.555 1.566-1.555.313 0 .591.078.735.157l-.12.403a1.302 1.302 0 00-.615-.139c-.669 0-1.03.5-1.03 1.104 0 .675.434 1.091 1.013 1.091.302 0 .5-.072.651-.139l.09.398zM104.657 175.345v.416h-.91v2.501h-.531v-2.501h-.91v-.416h2.351zM107.685 176.779c0 1.078-.754 1.549-1.453 1.549-.783 0-1.398-.579-1.398-1.501 0-.971.646-1.543 1.447-1.543.837 0 1.404.609 1.404 1.495zm-2.308.031c0 .639.361 1.121.88 1.121.506 0 .886-.477.886-1.134 0-.494-.247-1.115-.874-1.115-.622 0-.892.579-.892 1.128zM108.846 175.345v1.229c0 .458-.013.753-.036 1.169l.018.006c.181-.355.277-.561.477-.897l.91-1.507h.62v2.917h-.506v-1.235c0-.477.012-.724.036-1.199h-.012c-.193.379-.313.614-.488.91-.277.451-.603 1.012-.91 1.524h-.615v-2.917h.506zM111.737 175.345h.65l.524 1.471c.079.217.199.572.266.802h.012c.066-.224.229-.682.35-1.001l.464-1.271h.657l.205 2.917h-.506l-.066-1.393c-.013-.319-.036-.687-.049-1.042h-.018c-.078.265-.163.494-.325.946l-.561 1.47h-.38l-.519-1.446a14.175 14.175 0 01-.295-.964h-.024c-.013.344-.024.729-.042 1.049l-.079 1.38h-.488l.224-2.918zM118.197 176.779c0 1.078-.754 1.549-1.453 1.549-.783 0-1.398-.579-1.398-1.501 0-.971.646-1.543 1.447-1.543.836 0 1.404.609 1.404 1.495zm-2.309.031c0 .639.361 1.121.88 1.121.506 0 .886-.477.886-1.134 0-.494-.247-1.115-.874-1.115-.621 0-.892.579-.892 1.128zM120.949 178.159a2.057 2.057 0 01-.838.169c-.88 0-1.452-.597-1.452-1.489 0-.897.614-1.555 1.566-1.555.313 0 .591.078.735.157l-.12.403a1.302 1.302 0 00-.615-.139c-.669 0-1.03.5-1.03 1.104 0 .675.434 1.091 1.013 1.091.302 0 .5-.072.651-.139l.09.398zM123.64 175.345v.416h-.91v2.501h-.53v-2.501h-.91v-.416h2.35zM124.62 175.345v.982a3.73 3.73 0 01.482-.03c.656 0 1.35.211 1.35.988 0 .302-.12.513-.308.669-.319.271-.844.338-1.271.338-.289 0-.561-.019-.783-.042v-2.905h.53zm-.006 2.543c.108.019.223.024.397.024.392 0 .91-.133.91-.614 0-.507-.53-.621-.928-.621-.139 0-.254.012-.38.036v1.175z"/></g><g fill="#878787"><path d="M5.909 126.909v-.479l.611-.594c1.472-1.401 2.146-2.146 2.146-3.015 0-.585-.275-1.126-1.135-1.126-.523 0-.958.266-1.224.487l-.248-.549c.39-.328.966-.586 1.622-.586 1.241 0 1.765.852 1.765 1.676 0 1.063-.771 1.924-1.986 3.094l-.452.426v.018h2.58v.647H5.909zM13.899 121.803H11.7l-.221 1.48a3.25 3.25 0 01.47-.026c.452 0 .886.089 1.241.311.452.248.824.753.824 1.472 0 1.125-.896 1.968-2.146 1.968-.63 0-1.152-.178-1.437-.354l.195-.595c.239.143.709.319 1.241.319.727 0 1.365-.479 1.356-1.25 0-.744-.506-1.268-1.649-1.268-.337 0-.594.026-.807.054l.373-2.767h2.757v.656z"/></g><g fill="#878787"><path d="M9.349 81.744H7.15l-.222 1.48c.134-.018.258-.026.471-.026.452 0 .886.089 1.241.311.452.248.824.753.824 1.472 0 1.125-.896 1.968-2.146 1.968-.63 0-1.152-.178-1.437-.354L6.076 86c.239.143.709.319 1.241.319.727 0 1.365-.479 1.356-1.25 0-.744-.506-1.268-1.649-1.268-.337 0-.594.026-.807.054l.373-2.767h2.757v.656zM14.297 83.907c0 1.959-.735 3.041-2.003 3.041-1.126 0-1.897-1.055-1.915-2.961 0-1.941.842-2.997 2.013-2.997 1.205 0 1.905 1.082 1.905 2.917zm-3.129.089c0 1.498.461 2.35 1.17 2.35.789 0 1.17-.932 1.17-2.403 0-1.418-.354-2.349-1.17-2.349-.674-.001-1.17.832-1.17 2.402z"/></g><g fill="#878787"><path d="M9.649 41.911v.515L7.14 47.674h-.806l2.5-5.098v-.018H6.015v-.647h3.634zM13.899 42.567H11.7l-.221 1.48a3.25 3.25 0 01.47-.026c.452 0 .886.089 1.241.311.452.248.824.753.824 1.472 0 1.125-.896 1.968-2.146 1.968-.63 0-1.152-.178-1.437-.354l.195-.595c.239.143.709.319 1.241.319.727 0 1.365-.479 1.356-1.25 0-.744-.506-1.268-1.649-1.268-.337 0-.594.026-.807.054l.373-2.767h2.757v.656z"/></g><g fill="#878787"><path d="M3.052 3.667h-.018l-1.002.54-.15-.594 1.259-.673h.665v5.763h-.754V3.667zM9.747 5.759c0 1.959-.735 3.041-2.003 3.041-1.126 0-1.897-1.055-1.915-2.961 0-1.941.842-2.997 2.013-2.997 1.205 0 1.905 1.082 1.905 2.917zm-3.129.089c0 1.498.461 2.35 1.17 2.35.789 0 1.17-.932 1.17-2.403 0-1.418-.354-2.349-1.17-2.349-.674 0-1.17.833-1.17 2.402zM14.297 5.759c0 1.959-.735 3.041-2.003 3.041-1.126 0-1.897-1.055-1.915-2.961 0-1.941.842-2.997 2.013-2.997 1.205 0 1.905 1.082 1.905 2.917zm-3.129.089c0 1.498.461 2.35 1.17 2.35.789 0 1.17-.932 1.17-2.403 0-1.418-.354-2.349-1.17-2.349-.674 0-1.17.833-1.17 2.402z"/></g></svg>