<svg xmlns="http://www.w3.org/2000/svg" viewBox="0 0 18.46 12.86"><defs><style>.a{fill:#fff;}</style></defs><path class="a" d="M6.75,4.72H9.13l.54,0H11.9l.42,0,.4,0H15.1a7.81,7.81,0,0,1,1.29,0,1.58,1.58,0,0,1,.82.57,1.84,1.84,0,0,1,.29,1.25,3.09,3.09,0,0,0,0,.43V8.34c0,.15,0,.29,0,.44v.89c0,.15,0,.29,0,.43s0,.29,0,.43,0,.27,0,.4,0,.34,0,.5,0,.29,0,.43,0,.27,0,.4,0,.15,0,.22A1.58,1.58,0,0,1,15.87,14c-.44,0-.89,0-1.33,0H7a.45.45,0,0,1-.16,0c-.15,0-.28,0-.42,0H5.2a3.11,3.11,0,0,1-.61,0,1.64,1.64,0,0,1-1-.62,1.81,1.81,0,0,1-.27-.58s0-.08,0-.13l0-.69v-.7a.15.15,0,0,1,.09-.06h.83c0,.24,0,.48,0,.72a1.53,1.53,0,0,0,.1.85.56.56,0,0,0,.32.26,2.26,2.26,0,0,0,.53.06h.52l.44,0,.47,0,.6,0c.13,0,.26,0,.39,0l.2,0H13a3,3,0,0,1,.52,0,7.06,7.06,0,0,0,.92,0h.82c.21,0,.43.05.64,0a.66.66,0,0,0,.66-.61v-.63c0-.18,0-.36,0-.54,0-.48,0-1,0-1.45s0-.93,0-1.39,0-.87,0-1.31,0-.65,0-1a.43.43,0,0,0-.16-.34A.69.69,0,0,0,16,5.64c-.44,0-8.32,0-8.55,0a.15.15,0,0,1-.17-.09C7.08,5.28,6.92,5,6.75,4.72Z" transform="translate(-0.67 -3.08)"/><path class="a" d="M3.67,10.78H1.12a.46.46,0,0,1-.39-.71c.11-.21.23-.4.35-.6l.49-.81c.16-.27.3-.54.45-.81s.35-.56.52-.85.31-.55.46-.83l.21-.33c.17-.31.34-.62.52-.92l.82-1.38.09-.19a.51.51,0,0,1,.63-.24.67.67,0,0,1,.25.25c.1.14.18.3.27.45L6,4.14l.45.74c.18.32.35.64.53,1s.32.51.47.77l.73,1.25c.19.33.39.66.58,1l.48.86a3.7,3.7,0,0,1,.21.33.53.53,0,0,1,.06.39c-.08.28-.15.32-.41.35s-.53,0-.79,0l-.42,0-.45,0c-.19,0-.38,0-.57,0a5.06,5.06,0,0,0-.87,0l-.34,0-.43,0H3.67Zm-1.76-.9a1.38,1.38,0,0,1,.28,0c.25,0,.5,0,.75,0s.23-.05.35-.05l.49,0,.42,0,.41,0,.35,0H7l.4,0h.85L5.09,4.48c-.1.15-.2.29-.28.43s-.3.55-.46.81a4.25,4.25,0,0,0-.44.74,9.63,9.63,0,0,1-.53.93l-.44.73-.29.52C2.42,9.05,2.17,9.45,1.91,9.88Z" transform="translate(-0.67 -3.08)"/><path class="a" d="M17.71,6.72l.75,0a.73.73,0,0,1,.6.44.44.44,0,0,1,.06.23c0,.37,0,.74,0,1.11s0,.83,0,1.24,0,1,0,1.42a.76.76,0,0,1-.76.74c-.17,0-.34,0-.51,0h-.13Zm.64,4.61c.08,0,.14-.06.14-.15s0-.21,0-.32c0-.63,0-1.26,0-1.9V8.38c0-.27,0-.54,0-.81,0-.09,0-.16-.14-.18Z" transform="translate(-0.67 -3.08)"/><path class="a" d="M12.58,7H13.8l1.25,0a.46.46,0,0,1,.43.42.39.39,0,0,1-.43.38H11.91l-.57,0A.44.44,0,0,1,11,7.37a.36.36,0,0,1,.3-.36l1.26,0Z" transform="translate(-0.67 -3.08)"/><path class="a" d="M5,14.13l.27,0,.43,0,.49,0,.63,0,.36,0s.06,0,.07.07a4.24,4.24,0,0,1-.06,1.28.59.59,0,0,1-.41.34,1.35,1.35,0,0,1-.34.06l-.61,0a.78.78,0,0,1-.79-.5.49.49,0,0,1,0-.24c0-.31,0-.62,0-.93C5,14.23,5,14.19,5,14.13Zm1.64.62H6.58a2.78,2.78,0,0,1-.76-.05.12.12,0,0,0-.16.13c0,.11,0,.22,0,.33s.05.17.16.17l.68,0c.08,0,.12,0,.13-.11S6.63,14.91,6.65,14.75Z" transform="translate(-0.67 -3.08)"/><path class="a" d="M15.89,14.17c0,.16,0,.3,0,.45s0,.28,0,.43a.77.77,0,0,1-.32.73,1,1,0,0,1-.64.16c-.23,0-.46,0-.69,0a.78.78,0,0,1-.59-.61c0-.2,0-.4,0-.59a3.91,3.91,0,0,1,0-.49.16.16,0,0,1,.13-.09l.5,0,.47,0,.56,0,.39,0Zm-1.6.57c0,.13,0,.24,0,.35s0,.27.23.25h.63a.12.12,0,0,0,.14-.14c0-.11,0-.23,0-.35s-.09-.21-.24-.17a1.65,1.65,0,0,1-.32.06Z" transform="translate(-0.67 -3.08)"/><path class="a" d="M14.81,11.09c-.17,0-.34,0-.52,0l-.45,0-.39,0-.49,0-.44,0a.32.32,0,0,1-.33-.3.32.32,0,0,1,.33-.32l.39,0h2a.28.28,0,0,1,.29.2.28.28,0,0,1-.08.32c-.07.06-.19.05-.29.07Z" transform="translate(-0.67 -3.08)"/><path class="a" d="M14.36,12H12.55a.38.38,0,0,1-.31-.16.31.31,0,0,1,.24-.46c.2,0,.4,0,.59,0s.31,0,.46,0,.27,0,.41,0,.23,0,.35,0l.71,0a.31.31,0,0,1,.21.34.27.27,0,0,1-.28.23h-.57Z" transform="translate(-0.67 -3.08)"/><path class="a" d="M14.35,9.37l-.43,0-.54,0-.47,0-.38,0a.34.34,0,0,1-.34-.3.32.32,0,0,1,.35-.32l.29,0,.43,0h.92l.82,0a.28.28,0,0,1,.21.29q0,.25-.24.27h-.62Z" transform="translate(-0.67 -3.08)"/><path class="a" d="M14.51,10.25l-.64-.05h-.72a.63.63,0,0,1-.45,0,.37.37,0,0,0-.21,0,.22.22,0,0,1-.27-.13.3.3,0,0,1,.26-.42c.14,0,.28,0,.42,0,.44,0,.87,0,1.31,0l.75,0a.29.29,0,0,1,.23.39.28.28,0,0,1-.3.19h-.38Z" transform="translate(-0.67 -3.08)"/><path class="a" d="M10.17,7.28c0,.51-.28.74-.73.66a.47.47,0,0,1-.39-.38,1.82,1.82,0,0,1,0-.32.45.45,0,0,1,0-.16c0-.17.19-.21.34-.24a.49.49,0,0,1,.55.1A2.67,2.67,0,0,1,10.17,7.28Z" transform="translate(-0.67 -3.08)"/><path class="a" d="M6.4,8H5.54l.77,1.62h0l-2-2h1L4.11,6.4l.13,0h.81a1,1,0,0,1,.3,0,.55.55,0,0,1,.2.2c.18.29.35.58.52.87,0,0,.08.09.11.14Z" transform="translate(-0.67 -3.08)"/></svg>