<svg xmlns="http://www.w3.org/2000/svg" viewBox="0 0 19.15 17.07"><defs><style>.a{fill:#fff;}</style></defs><path class="a" d="M9.29,13.21a1,1,0,0,1-1-.86c0-.14,0-.32-.17-.37s-.18.13-.24.23-.18.06-.27.06H6.3c-.09,0-.22,0-.27-.07-.23-.55-.4,0-.45.07A1.13,1.13,0,0,0,5.4,13c0,1.72,0,3.45,0,5.17,0,.29-.09.37-.37.37-1.44,0-2.87,0-4.3,0-.26,0-.3-.06-.3-.32,0-1.75,0-3.49,0-5.24A5.75,5.75,0,0,1,3.21,7.81,5.43,5.43,0,0,1,5.62,7c.2,0,.43,0,.38-.34,0-.13.07-.17.19-.17H7.68c.13,0,.2,0,.21.19s0,.26.16.25.15-.18.15-.3c0-.48,0-.95,0-1.42A1.1,1.1,0,0,1,9,4.09a.27.27,0,0,0,.18-.24c.12-.77,0-.85-.71-.85h-2c-.45,0-.62-.15-.62-.52S6,2,6.41,2H8.85a.56.56,0,0,0,.5-.21.71.71,0,0,1,1.18,0A.51.51,0,0,0,11,2h2.52c.41,0,.59.16.58.51s-.16.51-.58.51H11c-.24,0-.34.06-.31.31s0,.34,0,.51a.26.26,0,0,0,.19.27,1.09,1.09,0,0,1,.76,1.1V6.68c0,.11,0,.26.16.27s.16-.12.15-.23.06-.22.22-.22h1.45c.08,0,.21,0,.2.1,0,.49.35.38.6.41a5.36,5.36,0,0,1,2.73,1,5.48,5.48,0,0,1,2.39,4.52c0,1.87,0,3.74,0,5.61,0,.32-.11.38-.4.37-1.38,0-2.77,0-4.15,0-.32,0-.42-.09-.42-.42,0-1.76,0-3.52,0-5.28a.85.85,0,0,0-.35-.79c-.14-.09-.33-.23-.4.09,0,.16-.16.15-.29.15l-1.09,0c-.2,0-.48.13-.54-.24,0-.06-.1,0-.16,0s-.12.14-.14.22c-.06.28-.05.57-.32.77A5.47,5.47,0,0,1,9.29,13.21Zm5.9,1.88h0c0,.83,0,1.65,0,2.48,0,.29.06.4.38.39,1,0,2.06,0,3.1,0,.29,0,.39-.07.39-.38,0-1.57,0-3.13,0-4.7a5.27,5.27,0,0,0-1.24-3.5,4.82,4.82,0,0,0-3.61-1.79c-.22,0-.33,0-.32.29,0,1.08,0,2.16,0,3.24,0,.17,0,.25.23.28a1.34,1.34,0,0,1,1.1,1.29C15.16,13.49,15.19,14.29,15.19,15.09ZM1,15c0,1,0,1.82,0,2.65,0,.28.09.34.35.34,1.05,0,2.09,0,3.14,0,.31,0,.38-.1.38-.39,0-1.56,0-3.11,0-4.66a1.41,1.41,0,0,1,1-1.49.24.24,0,0,0,.2-.27V7.83c0-.19-.07-.23-.25-.24a2.74,2.74,0,0,0-1.07.19A5.05,5.05,0,0,0,1.1,11.84,20,20,0,0,0,1,15Zm7.28-5.5V7.87c0-.16,0-.29-.22-.28s-.19.15-.19.28v3.19c0,.15,0,.32.2.32s.21-.16.21-.31Zm3.73,0c0-.56,0-1.11,0-1.67,0-.12,0-.27-.16-.25s-.13.15-.13.25c0,1.09,0,2.18,0,3.27,0,.11,0,.26.16.25s.13-.15.13-.25C12,10.59,12,10.05,12,9.52ZM9.5,12.33a.21.21,0,0,0,0-.41C9.12,12,9.26,12.39,9.5,12.33Z" transform="translate(-0.42 -1.46)"/></svg>