<svg xmlns="http://www.w3.org/2000/svg" viewBox="0 0 13.22 18.89"><defs><style>.a{fill:#fff;}</style></defs><path class="a" d="M14.28,17.79v1.28a.33.33,0,0,1-.37.37H12.37a.34.34,0,0,1-.38-.38V17.79H8v.35c0,.3,0,.6,0,.9a.36.36,0,0,1-.39.4H6.09a.33.33,0,0,1-.29-.12.3.3,0,0,1-.08-.17c0-.42,0-.83,0-1.25,0-.1,0-.12-.13-.12a2.16,2.16,0,0,1-1-.17,1.92,1.92,0,0,1-1.15-1.42,1.68,1.68,0,0,1,0-.45V2.57A2,2,0,0,1,4.75.67,2.12,2.12,0,0,1,5.41.56c3.06,0,6.12,0,9.18,0a1.93,1.93,0,0,1,1.75,1,1.71,1.71,0,0,1,.25.83c0,.34,0,.68,0,1V15.72a2,2,0,0,1-.61,1.5,1.93,1.93,0,0,1-1.17.54C14.65,17.78,14.47,17.78,14.28,17.79ZM16,12.49v-10a1.94,1.94,0,0,0,0-.24A1.33,1.33,0,0,0,14.66,1.2H5.34A1.33,1.33,0,0,0,4,2.53v10H5.58c.1,0,.14,0,.14-.13,0-2.46,0-4.93,0-7.39,0-.6,0-1.2,0-1.79A.28.28,0,0,1,6,2.89h8a.24.24,0,0,1,.14,0c.13.06.15.19.15.32v9.23Zm0,.66H4a0,0,0,0,0,0,0c0,.79,0,1.58,0,2.36a4.89,4.89,0,0,0,0,.54A1.32,1.32,0,0,0,5.3,17.13h9.33l.25,0A1.33,1.33,0,0,0,16,15.85v-2.7ZM6.35,3.53v9h7.3v-9Zm7.29,15.26v-1h-1v.93c0,.06,0,.07.08.07Zm-7.29,0h1v-1h-1Z" transform="translate(-3.39 -0.56)"/><path class="a" d="M10.31,15.47v.33a.32.32,0,0,1-.3.32.3.3,0,0,1-.32-.24,7.12,7.12,0,0,1,0-.8.3.3,0,0,1,.35-.26.33.33,0,0,1,.27.33Z" transform="translate(-3.39 -0.56)"/><path class="a" d="M6.37,15.46a2.25,2.25,0,0,0,0-.26.34.34,0,0,1,.3-.38c.23,0,.33.14.35.36s0,.39,0,.59a.36.36,0,0,1-.33.35.33.33,0,0,1-.32-.37Z" transform="translate(-3.39 -0.56)"/><path class="a" d="M13,15.47a2.71,2.71,0,0,1,0-.41.28.28,0,0,1,.32-.24.28.28,0,0,1,.28.27c0,.24,0,.48,0,.72a.33.33,0,0,1-.33.31.34.34,0,0,1-.31-.35v-.3Z" transform="translate(-3.39 -0.56)"/><path class="a" d="M12,15.47c0,.14,0,.28,0,.41a.32.32,0,0,1-.3.24c-.12,0-.29-.11-.3-.23a7.85,7.85,0,0,1,0-.84c0-.15.15-.23.31-.23a.31.31,0,0,1,.29.24.24.24,0,0,1,0,.08v.33Z" transform="translate(-3.39 -0.56)"/><path class="a" d="M14.64,15.47V15.2a.35.35,0,0,1,.26-.38.31.31,0,0,1,.37.3,3,3,0,0,1,0,.74.3.3,0,0,1-.32.26.33.33,0,0,1-.3-.34Z" transform="translate(-3.39 -0.56)"/><path class="a" d="M4.7,15.47c0-.14,0-.28,0-.41a.31.31,0,0,1,.32-.24.27.27,0,0,1,.28.26,6.4,6.4,0,0,1,0,.76.29.29,0,0,1-.31.28.33.33,0,0,1-.32-.34c0-.1,0-.21,0-.31Z" transform="translate(-3.39 -0.56)"/><path class="a" d="M8.65,15.47c0,.1,0,.21,0,.32a.32.32,0,0,1-.32.33A.31.31,0,0,1,8,15.79v-.66a.31.31,0,0,1,.31-.31.31.31,0,0,1,.31.31C8.66,15.24,8.65,15.35,8.65,15.47Z" transform="translate(-3.39 -0.56)"/><path class="a" d="M9.36,6.22a4.46,4.46,0,0,0-.07-.51c-.08-.33-.18-.66-.27-1a.47.47,0,0,1,.31-.48.43.43,0,0,1,.35,0,4.36,4.36,0,0,1,1.2.89,2.59,2.59,0,0,1,.6,1l0,.07a.46.46,0,0,1,0-.09.41.41,0,0,1,.33-.25.42.42,0,0,1,.45.19,2.94,2.94,0,0,1,.46,1,9.44,9.44,0,0,1,.14,1,5.47,5.47,0,0,1,0,.7,2.88,2.88,0,0,1-.86,2.05,2.82,2.82,0,0,1-1.15.74,3.91,3.91,0,0,1-.76.14,2.6,2.6,0,0,1-1.14-.13A2.85,2.85,0,0,1,7,8.92,3,3,0,0,1,7.5,7.33,3.31,3.31,0,0,0,8,6.3,2.14,2.14,0,0,0,8,6a.43.43,0,0,1,.55-.4,1.34,1.34,0,0,1,.63.52l.11.16Zm-.73.13c0,.05,0,.09,0,.12A5.44,5.44,0,0,1,8.4,7c-.15.31-.33.61-.49.91a2.11,2.11,0,0,0,0,1.91,2.22,2.22,0,0,0,1.88,1.35,2.33,2.33,0,0,0,2.58-2.35c0-.41,0-.82-.08-1.23a5.68,5.68,0,0,0-.18-.71.1.1,0,0,0-.06,0l-.4.65a.69.69,0,0,0,0,.13c-.1.32-.19.64-.3,1a.29.29,0,0,1-.41.14c-.16-.07-.2-.24-.14-.45s.17-.59.24-.89a2,2,0,0,0-.06-1.1,2.14,2.14,0,0,0-.71-1l-.36-.27a.78.78,0,0,0,0,.09A7.67,7.67,0,0,1,10,6a1.81,1.81,0,0,1-.35,1.36.35.35,0,0,1-.37.14A.38.38,0,0,1,9,7.17,1.67,1.67,0,0,0,8.63,6.35Z" transform="translate(-3.39 -0.56)"/></svg>