<svg xmlns="http://www.w3.org/2000/svg" viewBox="0 0 16.57 19.54"><defs><style>.a{fill:#fff;}</style></defs><path class="a" d="M16.69,10v.14c0,2.49,0,5,0,7.46a2.1,2.1,0,0,1-.4,1.29,2,2,0,0,1-1.19.79,2,2,0,0,1-1.79-.43l-.19-.18s0,0,0,0a2.08,2.08,0,0,1-3.11,0,2.05,2.05,0,0,1-3.08,0,6.26,6.26,0,0,1-.51.39,1.78,1.78,0,0,1-.92.29,2,2,0,0,1-1.08-.22,2,2,0,0,1-1.06-1.41,1.93,1.93,0,0,1,0-.42V10H2.2a.5.5,0,0,1-.07-1c.14,0,.29,0,.43,0h.72V8.54a1.89,1.89,0,0,1,.39-1.19,1.92,1.92,0,0,1,.75-.63A2,2,0,0,1,6.65,7l.12.1.11.11a2.07,2.07,0,0,1,3.1,0,2.05,2.05,0,0,1,1.55-.7,2.11,2.11,0,0,1,1.57.72,1,1,0,0,1,.13-.16,2,2,0,0,1,1.14-.54,2,2,0,0,1,2.27,1.64,2.25,2.25,0,0,1,0,.44c0,.14,0,.27,0,.41h.58V8.91c0-.62,0-1.23,0-1.85a.51.51,0,0,1,.26-.48.5.5,0,0,1,.75.41V9.56a.48.48,0,0,1-.47.48ZM6.37,13.16V8.56a.85.85,0,0,0,0-.23,1,1,0,0,0-.78-.78,1,1,0,0,0-1,.29,1.11,1.11,0,0,0-.3.8v9a1.07,1.07,0,0,0,0,.25,1,1,0,0,0,2.07-.17C6.38,16.21,6.37,14.68,6.37,13.16Zm4.11,0v4.51a1,1,0,0,0,.35.83,1,1,0,0,0,.92.25,1,1,0,0,0,.82-1.05q0-4.47,0-8.94c0-.09,0-.18,0-.27a1,1,0,0,0-.37-.7,1,1,0,0,0-.87-.22,1,1,0,0,0-.84,1Zm3.11,0v4.67a.34.34,0,0,0,0,.1,1,1,0,0,0,2.07-.17V8.64a2.45,2.45,0,0,0,0-.27,1,1,0,0,0-1.83-.46.93.93,0,0,0-.23.6Zm-6.2,0v4.58a1,1,0,0,0,.29.71,1,1,0,0,0,1.1.26,1,1,0,0,0,.68-1V8.53a1,1,0,0,0-.27-.67,1,1,0,0,0-1.8.65C7.38,10.05,7.39,11.6,7.39,13.15Z" transform="translate(-1.72 -0.23)"/><path class="a" d="M7.75,3.69a2.06,2.06,0,0,1-.42,1.17,1.1,1.1,0,0,1-.23.25A.42.42,0,0,1,6.51,5a.54.54,0,0,1,0-.69.84.84,0,0,0,.2-.56,1.66,1.66,0,0,0-.13-.52c-.1-.24-.23-.47-.35-.71a1.91,1.91,0,0,1-.19-1A1.93,1.93,0,0,1,6.43.57,1.88,1.88,0,0,1,6.65.31a.47.47,0,0,1,.66.15.54.54,0,0,1-.06.7.82.82,0,0,0-.1.86c.11.26.24.51.37.76A2.23,2.23,0,0,1,7.75,3.69Z" transform="translate(-1.72 -0.23)"/><path class="a" d="M13.57.78a.53.53,0,0,1-.13.34.76.76,0,0,0-.2.59,1.73,1.73,0,0,0,.15.49c.09.2.2.39.3.58a2.27,2.27,0,0,1,.21.73,1.94,1.94,0,0,1-.43,1.37.69.69,0,0,1-.26.25.41.41,0,0,1-.55-.19.53.53,0,0,1,0-.64.9.9,0,0,0,.21-.7,2.3,2.3,0,0,0-.15-.49c-.13-.31-.31-.6-.42-.92A1.68,1.68,0,0,1,12.59.58l.16-.21a.44.44,0,0,1,.69,0A.53.53,0,0,1,13.57.78Z" transform="translate(-1.72 -0.23)"/><path class="a" d="M10.48.79a.48.48,0,0,1-.14.36.8.8,0,0,0-.11.85c.11.28.25.54.38.8a2,2,0,0,1,.21,1.07,2.05,2.05,0,0,1-.36.91,3.15,3.15,0,0,1-.24.3.3.3,0,0,1-.33.08.57.57,0,0,1-.3-.89.87.87,0,0,0,.13-.95c-.11-.24-.23-.48-.35-.73a2.36,2.36,0,0,1-.25-.87A1.81,1.81,0,0,1,9.48.62,1.69,1.69,0,0,1,9.76.3a.42.42,0,0,1,.52,0A.53.53,0,0,1,10.48.79Z" transform="translate(-1.72 -0.23)"/></svg>