<?xml version="1.0" encoding="UTF-8"?>
<svg id="_Слой_2" data-name="Слой 2" xmlns="http://www.w3.org/2000/svg" viewBox="0 0 53.44 67.83">
  <defs>
    <style>
      .cls-1 {
        fill: #fff;
      }

      .cls-2 {
        stroke-width: 2px;
      }

      .cls-2, .cls-3 {
        fill: none;
        stroke: #fff;
        stroke-linecap: round;
        stroke-linejoin: round;
      }
    </style>
  </defs>
  <g id="_Слой_4" data-name="Слой 4">
    <rect class="cls-2" x="29.04" y="9.46" width="8" height="57.37"/>
    <polygon class="cls-2" points="33.64 1 6.98 9.46 52.44 9.46 33.64 1"/>
    <polyline class="cls-3" points="36.98 9.46 29.04 17.58 37.01 25.73 29.13 33.79 37.04 41.89 29.06 50.05 36.95 58.11 29.13 66.11"/>
    <line class="cls-3" x1="29.04" y1="17.58" x2="37.04" y2="17.58"/>
    <line class="cls-3" x1="37.01" y1="25.73" x2="29.04" y2="25.73"/>
    <line class="cls-3" x1="29.13" y1="33.79" x2="37.04" y2="33.79"/>
    <line class="cls-3" x1="37.04" y1="41.89" x2="29.04" y2="41.89"/>
    <line class="cls-3" x1="29.06" y1="50.05" x2="37.04" y2="50.05"/>
    <line class="cls-3" x1="36.95" y1="58.11" x2="29.04" y2="58.11"/>
    <polyline class="cls-3" points="43.04 5.23 37.04 9.46 33.64 1 29.04 9.46 20.31 5.23"/>
    <rect class="cls-2" x="1" y="25.94" width="15.94" height="12.67"/>
    <line class="cls-3" x1="8.75" y1="9.46" x2="8.75" y2="25.94"/>
    <circle class="cls-1" cx="8.75" cy="21.66" r="2.22"/>
  </g>
</svg>