<?xml version="1.0" encoding="UTF-8"?>
<!-- The Best Svg Icon site in the world: iconSvg.co, Visit us! https://iconsvg.co -->
<svg width="800px" height="800px" version="1.1" viewBox="172 144 512 512" xmlns="http://www.w3.org/2000/svg">
 <defs>
  <clipPath id="a">
   <path d="m199 148.09h402v503.81h-402z"/>
  </clipPath>
 </defs>
 <g clip-path="url(#a)">
  <path d="m561.64 439.7v-133.18c0-13.816-5.6133-27.332-15.406-37.078l-106.64-106.12c-9.8711-9.8242-22.977-15.23-36.895-15.23h-152.46c-27.828 0-50.469 22.641-50.469 50.469v368.52c0 27.828 22.641 50.469 50.469 50.469h141.99c22.102 21.254 52.086 34.352 85.094 34.352 67.77 0 122.91-55.137 122.91-122.91-0.007813-35.148-14.863-66.871-38.594-89.301zm-311.39 146.48c-10.523 0-19.09-8.5664-19.09-19.09v-368.53c0-10.523 8.5664-19.09 19.09-19.09h152.46c5.5742 0 10.816 2.1641 14.762 6.0938l106.63 106.12c3.9766 3.9609 6.1641 9.2266 6.1641 14.832v111.58c-16.043-7.6836-33.992-11.996-52.93-11.996-4.8477 0-9.6133 0.35547-14.32 0.90625l-182.36-0.003906v23.617h123.32c-16.391 12.258-29.613 28.449-38.258 47.23h-85.059v23.617h76.988c-2.0391 8.8633-3.2188 18.059-3.2188 27.535 0 20.633 5.1328 40.086 14.16 57.176zm227.08 39.574c-53.348 0-96.754-43.398-96.754-96.754 0-53.348 43.398-96.754 96.754-96.754 53.348 0 96.754 43.398 96.754 96.754 0.003906 53.355-43.402 96.754-96.754 96.754z"/>
 </g>
 <path d="m280.65 336.16h199.83v23.617h-199.83z"/>
 <path d="m457.24 582.46c-1.8203 0-3.5664-0.72266-4.8477-2.0078l-37.258-37.266c-1.2891-1.2812-2.0078-3.0312-2.0078-4.8477 0-1.8203 0.72266-3.5664 2.0078-4.8477l15.777-15.77c2.6758-2.6758 7.0234-2.6758 9.6992 0l16.641 16.641 56.797-56.797c2.6758-2.6758 7.0234-2.6758 9.6992 0l15.777 15.77c1.2812 1.2812 2.0078 3.0312 2.0078 4.8477 0 1.8203-0.72266 3.5664-2.0078 4.8477l-77.422 77.422c-1.2969 1.2812-3.043 2.0078-4.8633 2.0078z"/>
</svg>