<?xml version="1.0" encoding="UTF-8"?>
<svg id="_Слой_2" data-name="Слой 2" xmlns="http://www.w3.org/2000/svg" viewBox="0 0 63.7 63.93">
  <defs>
    <style>
      .cls-1 {
        fill: none;
        stroke: #fff;
        stroke-linejoin: round;
        stroke-width: 3px;
      }
    </style>
  </defs>
  <g id="_Слой_3" data-name="Слой 3">
    <circle class="cls-1" cx="20.83" cy="43.1" r="8.05"/>
    <path class="cls-1" d="M40.17,37.38v-2.14c0-.95-.77-1.71-1.71-1.71h-2.33c-1.52,0-2.97-.6-4.04-1.68h0c-1.07-1.07-1.68-2.53-1.68-4.05v-2.33c0-.95-.77-1.71-1.71-1.71h-2.14c-.95,0-1.71.77-1.71,1.71h0c0,.95-.77,1.72-1.71,1.72h-4.57c-.95,0-1.71-.77-1.71-1.71h0c0-.95-.77-1.72-1.71-1.72h-2.14c-.95,0-1.71.77-1.71,1.71v2.33c0,1.52-.6,2.97-1.68,4.04h0c-1.07,1.07-2.53,1.68-4.04,1.68h-2.33c-.95,0-1.71.77-1.71,1.71v2.14c0,.95.77,1.71,1.71,1.71h0c.95,0,1.72.77,1.72,1.72v4.57c0,.95-.77,1.72-1.72,1.72h0c-.95,0-1.71.77-1.71,1.71v2.14c0,.95.77,1.71,1.71,1.71h2.33c1.52,0,2.97.6,4.04,1.68h0c1.07,1.07,1.68,2.53,1.68,4.05v2.33c0,.95.77,1.71,1.71,1.71h2.14c.95,0,1.71-.77,1.71-1.71h0c0-.95.77-1.72,1.71-1.72h4.57c.95,0,1.71.77,1.71,1.71h0c0,.95.77,1.72,1.71,1.72h2.14c.95,0,1.71-.77,1.71-1.71v-2.33c0-1.52.6-2.97,1.68-4.04h0c1.07-1.08,2.53-1.68,4.04-1.68h2.33c.95,0,1.71-.77,1.71-1.71v-2.14c0-.95-.77-1.71-1.71-1.71h0c-.95,0-1.71-.77-1.71-1.71v-4.57c0-.95.77-1.71,1.71-1.71h0c.95,0,1.71-.77,1.71-1.71Z"/>
    <path class="cls-1" d="M60.43,14.16c-.62-.18-1.21-.13-1.72.08l-1.75-4.22c1.12-.46,1.83-1.71,1.45-3.06-.23-.8-.88-1.46-1.68-1.68-1.35-.38-2.6.33-3.06,1.45l-4.22-1.75c.21-.51.27-1.11.08-1.73-.25-.82-.94-1.48-1.78-1.68-1.66-.4-3.15.85-3.15,2.44,0,.34.07.67.19.96l-4.22,1.75c-.46-1.12-1.71-1.83-3.06-1.45-.8.23-1.46.88-1.68,1.68-.38,1.35.33,2.6,1.45,3.06l-1.75,4.22c-.51-.21-1.1-.27-1.72-.08-.82.25-1.48.94-1.69,1.77-.41,1.67.85,3.15,2.44,3.15.34,0,.67-.07.96-.19l1.75,4.22c-1.12.46-1.83,1.71-1.45,3.06.23.8.88,1.46,1.68,1.68,1.35.38,2.6-.33,3.06-1.45l4.22,1.75c-.21.51-.27,1.1-.08,1.72.25.82.94,1.48,1.77,1.69,1.67.41,3.15-.85,3.15-2.44,0-.34-.07-.67-.19-.96l4.22-1.75c.46,1.12,1.71,1.83,3.06,1.45.8-.23,1.46-.88,1.68-1.68.38-1.35-.33-2.6-1.45-3.06l1.75-4.22c.3.12.62.19.96.19,1.6,0,2.85-1.49,2.44-3.16-.2-.83-.87-1.53-1.69-1.77Z"/>
    <circle class="cls-1" cx="47.12" cy="16.57" r="4.05"/>
  </g>
</svg>