<?xml version="1.0" encoding="UTF-8"?>
<svg id="_Слой_2" data-name="Слой 2" xmlns="http://www.w3.org/2000/svg" viewBox="0 0 62.08 58.36">
  <defs>
    <style>
      .cls-1 {
        fill: #fff;
      }

      .cls-2, .cls-3, .cls-4 {
        stroke-linejoin: round;
      }

      .cls-2, .cls-3, .cls-4, .cls-5 {
        fill: none;
        stroke: #fff;
      }

      .cls-2, .cls-3, .cls-5 {
        stroke-width: 3px;
      }

      .cls-3, .cls-4 {
        stroke-linecap: round;
      }

      .cls-4 {
        stroke-width: 2px;
      }

      .cls-5 {
        stroke-miterlimit: 10;
      }
    </style>
  </defs>
  <g id="_Слой_4" data-name="Слой 4">
    <line class="cls-4" x1="56.68" y1="10.77" x2="56.68" y2="45.69"/>
    <path class="cls-3" d="M56.68,7.15c-2.16,0-3.9-.66-3.9-2.82,0-2.16,1.75-2.82,3.9-2.82h0c2.16,0,3.9,1.75,3.9,3.9v44.1l-3.9,7.36c-1.3-2.45-2.6-4.9-3.9-7.36V10.77"/>
    <path class="cls-3" d="M7.72,41.24c0-16.37-.05-39.74-.05-39.74h37.36v45.93h-9.03v9.43H7.67s.04-3.27.04-8.18"/>
    <polygon class="cls-2" points="36 56.86 36 47.43 45.03 47.43 36 56.86"/>
    <circle class="cls-3" cx="27.29" cy="25.39" r="12.35"/>
    <rect class="cls-1" x="20.02" y="19.87" width="6.67" height="2.35"/>
    <rect class="cls-1" x="20.02" y="24.22" width="14.54" height="2.35"/>
    <rect class="cls-1" x="20.02" y="28.44" width="14.54" height="2.35"/>
    <rect class="cls-1" x="20.02" y="28.57" width="14.54" height="2.35"/>
    <rect class="cls-1" x="28.14" y="19.87" width="3.79" height="2.35"/>
    <path class="cls-5" d="M15.65,39.65c0,.67-.25,1.35-.77,1.86l-7.17,7.17-1.73,1.73c-1.02,1.03-2.69,1.03-3.71,0-1.03-1.03-1.03-2.69,0-3.72l5.45-5.45,3.45-3.45c1.02-1.02,2.69-1.02,3.71,0,.52.51.77,1.19.77,1.86Z"/>
    <line class="cls-5" x1="18.56" y1="34.12" x2="14.88" y2="37.79"/>
  </g>
</svg>