<?xml version="1.0" encoding="UTF-8"?>
<svg id="_Слой_2" data-name="Слой 2" xmlns="http://www.w3.org/2000/svg" viewBox="0 0 51.22 51.21">
  <defs>
    <style>
      .cls-1 {
        fill: none;
        stroke: #fff;
        stroke-linejoin: round;
        stroke-width: 3px;
      }
    </style>
  </defs>
  <g id="_Слой_4" data-name="Слой 4">
    <path class="cls-1" d="M32.56,19.75l-4.69,5.06-2.95,3.17L7.44,46.81c-1.2,1.29-3.21,1.37-4.51.17-1.29-1.2-1.36-3.22-.16-4.51l17.55-18.92,3.12-3.36,5.77-6.22c.02.97.23,2.43,1.19,3.82.62.9,1.38,1.52,2.16,1.96Z"/>
    <path class="cls-1" d="M49.3,20.02c-2.47,2.16-4.95,4.32-7.43,6.48-.68-.23-1.99-.77-3.19-2-1.39-1.43-1.87-3-2.04-3.71-.2.01-2.19.04-4.08-1.04-.78-.44-1.54-1.06-2.16-1.96-.96-1.39-1.17-2.85-1.19-3.82-.01-.43.02-.76.04-.95-.03-.59-.28-3.9-3.14-6.38-2.89-2.5-6.25-2.24-6.83-2.19,1-.79,3.93-2.89,8.12-2.95,4.11-.06,6.97,1.9,8.47,2.95,4.94,3.47,6.54,8.59,7,10.38.88.21,2.58.75,4.19,2.19,1.21,1.09,1.88,2.25,2.24,3Z"/>
    <path class="cls-1" d="M23.44,20.19l-3.12,3.36c-3.85-3.51-7.88-6.84-11.62-10.45,2.18-.5,3.91-2.22,4.4-4.41,3.57,3.71,6.87,7.69,10.34,11.5Z"/>
    <path class="cls-1" d="M42.52,38.11c-2.18.5-3.9,2.22-4.41,4.4-4.55-4.71-8.62-9.86-13.19-14.53l2.95-3.17c4.7,4.61,9.91,8.73,14.65,13.3Z"/>
    <path class="cls-1" d="M49.72,43.84c0,.6-.09,1.19-.26,1.74-.45-1.03-1.49-1.74-2.68-1.74-1.62,0-2.94,1.31-2.94,2.94,0,1.19.71,2.22,1.74,2.67-.55.17-1.14.26-1.74.26-3.24,0-5.88-2.63-5.88-5.87,0-.46.05-.9.15-1.33.51-2.18,2.23-3.9,4.41-4.4.42-.1.87-.15,1.32-.15,3.25,0,5.88,2.63,5.88,5.88Z"/>
    <path class="cls-1" d="M13.26,7.37c0,.45-.05.9-.16,1.32-.49,2.19-2.22,3.91-4.4,4.41-.42.1-.87.15-1.32.15-3.25,0-5.88-2.63-5.88-5.88,0-.6.09-1.19.26-1.74.45,1.03,1.49,1.74,2.68,1.74,1.62,0,2.94-1.31,2.94-2.94,0-1.19-.71-2.22-1.74-2.67.55-.17,1.14-.26,1.74-.26,3.24,0,5.88,2.63,5.88,5.87Z"/>
  </g>
</svg>