<?xml version="1.0" encoding="UTF-8"?>
<svg id="_Слой_2" data-name="Слой 2" xmlns="http://www.w3.org/2000/svg" viewBox="0 0 256.23 256.28">
  <defs>
    <style>
      .cls-1, .cls-2 {
        stroke-miterlimit: 10;
      }

      .cls-1, .cls-2, .cls-3, .cls-4 {
        fill: none;
        stroke: #ff7701;
        stroke-width: 8px;
      }

      .cls-2, .cls-4 {
        stroke-linecap: round;
      }

      .cls-3, .cls-4 {
        stroke-linejoin: round;
      }

      .cls-5 {
        fill: #ff7701;
      }
    </style>
  </defs>
  <g id="_Слой_2-2" data-name="Слой 2">
    <path class="cls-1" d="M40.78,216.16c-22.6-22.47-36.78-53.65-36.78-88.05C4,59.56,59.57,4,128.12,4s124.11,55.56,124.11,124.11c0,32.94-12.63,62.92-33.56,85.14"/>
    <path class="cls-1" d="M172.14,71.93h-88.04c2.54-22.38,21.28-39.74,44.02-39.74s41.48,17.36,44.02,39.74Z"/>
    <path class="cls-1" d="M183.14,77.14c0,1.44-.58,2.74-1.53,3.69-.94.94-2.24,1.52-3.68,1.52h-99.62c-2.88,0-5.21-2.33-5.21-5.21,0-1.43.58-2.74,1.53-3.68.94-.95,2.24-1.53,3.68-1.53h99.62c2.88,0,5.21,2.34,5.21,5.21Z"/>
    <rect class="cls-5" x="116.59" y="20.89" width="18" height="40" rx="8.95" ry="8.95"/>
    <path class="cls-1" d="M173.39,92.89c0,17.43-5.01,33.21-13.14,44.68-2.59,3.67-5.51,6.9-8.69,9.6-6.83,5.8-14.86,9.15-23.44,9.15s-16.45-3.28-23.24-8.98c-3.25-2.74-6.24-6.02-8.89-9.77-8.13-11.47-13.14-27.25-13.14-44.68,0-3.59.21-7.11.63-10.54h89.28c.42,3.43.63,6.95.63,10.54Z"/>
    <path class="cls-2" d="M154.09,100.7c-.29,4.49-.65,10.77-4.57,18.63-3.37,6.76-7.54,12.24-10.67,15.27"/>
    <path class="cls-2" d="M218.67,213.25c-22.63,24.03-54.74,39.03-90.36,39.03s-65.09-13.79-87.53-36.12c2.55-6.52,6.37-12.65,11.25-18.22,9.39-10.71,22.7-19.37,38.43-24.87.1-.04.21-.07.31-.1,1.6-.61,6.6-2.74,10.3-6.88,1.82-2.02,3.32-4.52,3.97-7.55,1.34-6.19.68-9.64-.16-11.2,6.79,5.73,14.74,9.03,23.24,9.03s16.61-3.37,23.44-9.2c0,2.34-.14,8.15,2.53,14.02,2.86,6.28,8.19,9.06,10.94,10.22.44.13.88.25,1.31.38,5.5,1.7,10.73,3.78,15.64,6.2,1.01.5,2.02,1.01,3,1.54.06.03.11.06.16.09.72.38,1.43.77,2.13,1.17.98.56,1.93,1.13,2.87,1.71.57.35,1.14.71,1.7,1.07.15.1.3.19.44.29.64.41,1.27.84,1.89,1.27,1.61,1.12,3.16,2.28,4.66,3.47.59.47,1.17.95,1.75,1.43l.03.03c.61.52,1.21,1.04,1.8,1.57.36.33.72.66,1.08.99.65.61,1.29,1.23,1.92,1.86,1,1,1.97,2.02,2.89,3.07.27.3.53.6.79.9.2.23.4.46.59.7.21.24.4.47.59.71,1.86,2.28,3.55,4.65,5.04,7.1,1.26,2.04,2.38,4.14,3.36,6.29Z"/>
    <path class="cls-2" d="M60.26,216.16c2.1-3.98,5-9.56,11.8-15.13,5.84-4.79,11.89-8.08,15.98-9.57"/>
    <line class="cls-2" x1="128.12" y1="177.99" x2="128.12" y2="234.24"/>
    <polygon class="cls-4" points="101.07 166.09 111.42 185.38 128.12 177.99 101.07 166.09"/>
    <polygon class="cls-4" points="155.17 166.09 144.82 185.38 128.12 177.99 155.17 166.09"/>
    <polygon class="cls-4" points="154.12 207.22 154.12 231.04 166.5 234.24 178.88 231.04 178.88 207.22 154.12 207.22"/>
    <path class="cls-1" d="M209.52,122.41c0,3.57-5.26,6.46-11.75,6.46s-11.74-2.89-11.74-6.46,5.26-6.46,11.74-6.46,11.75,2.89,11.75,6.46Z"/>
    <path class="cls-3" d="M215.31,206.96c-1.49-2.45-3.18-4.82-5.04-7.1-.19-.24-.38-.47-.59-.71-.19-.24-.39-.47-.59-.7-.26-.3-.52-.6-.79-.9-.92-1.05-1.89-2.07-2.89-3.07-.63-.63-1.27-1.25-1.92-1.86-.36-.33-.72-.66-1.08-.99-.59-.53-1.19-1.05-1.8-1.57l-.03-.03c-.57-.48-1.16-.96-1.75-1.43-1.5-1.19-3.05-2.35-4.66-3.47-.62-.43-1.25-.85-1.89-1.27-.14-.1-.29-.19-.44-.29-.56-.36-1.12-.72-1.7-1.07-.94-.58-1.89-1.15-2.87-1.71-.7-.4-1.41-.79-2.13-1.17-.05-.03-.1-.06-.16-.09-.98-.53-1.99-1.04-3-1.54l2.95-40.42,1.1-15.16c0,3.57,5.26,6.46,11.74,6.46s11.75-2.89,11.75-6.46l5.79,84.55Z"/>
    <line class="cls-4" x1="197.77" y1="155.98" x2="197.77" y2="174.71"/>
    <path class="cls-4" d="M105.04,158.54c-.65,3.03-2.15,5.53-3.97,7.55-3.7,4.14-8.7,6.27-10.3,6.88-.1.03-.21.06-.31.1-15.73,5.5-29.04,14.16-38.43,24.87v-60.37h43.96c2.65,3.75,5.64,7.03,8.89,9.77.84,1.56,1.5,5.01.16,11.2Z"/>
    <path class="cls-4" d="M184.93,137.57l-2.95,40.42c-4.91-2.42-10.14-4.5-15.64-6.2-.43-.13-.87-.25-1.31-.38-2.75-1.16-8.08-3.94-10.94-10.22-2.67-5.87-2.53-11.68-2.53-14.02,3.18-2.7,6.1-5.93,8.69-9.6h24.68Z"/>
    <line class="cls-4" x1="83.03" y1="156.97" x2="64.3" y2="156.97"/>
  </g>
</svg>