<svg width="18" height="18" viewBox="0 0 18 18" fill="none" xmlns="http://www.w3.org/2000/svg">
<path d="M16.0203 15.0518L11.4553 10.4867C12.1637 9.5709 12.5469 8.45117 12.5469 7.27344C12.5469 5.86367 11.9967 4.5418 11.0018 3.54512C10.0068 2.54844 8.68145 2 7.27344 2C5.86543 2 4.54004 2.5502 3.54512 3.54512C2.54844 4.54004 2 5.86367 2 7.27344C2 8.68145 2.5502 10.0068 3.54512 11.0018C4.54004 11.9984 5.86367 12.5469 7.27344 12.5469C8.45117 12.5469 9.56914 12.1637 10.485 11.457L15.05 16.0203C15.0634 16.0337 15.0793 16.0443 15.0968 16.0516C15.1143 16.0588 15.133 16.0626 15.152 16.0626C15.1709 16.0626 15.1896 16.0588 15.2071 16.0516C15.2246 16.0443 15.2405 16.0337 15.2539 16.0203L16.0203 15.2557C16.0337 15.2423 16.0443 15.2264 16.0516 15.2089C16.0588 15.1914 16.0626 15.1726 16.0626 15.1537C16.0626 15.1348 16.0588 15.116 16.0516 15.0985C16.0443 15.081 16.0337 15.0651 16.0203 15.0518ZM10.0578 10.0578C9.3125 10.8014 8.32461 11.2109 7.27344 11.2109C6.22227 11.2109 5.23438 10.8014 4.48906 10.0578C3.74551 9.3125 3.33594 8.32461 3.33594 7.27344C3.33594 6.22227 3.74551 5.23262 4.48906 4.48906C5.23438 3.74551 6.22227 3.33594 7.27344 3.33594C8.32461 3.33594 9.31426 3.74375 10.0578 4.48906C10.8014 5.23438 11.2109 6.22227 11.2109 7.27344C11.2109 8.32461 10.8014 9.31426 10.0578 10.0578Z" fill="black" fill-opacity="0.3"/>
</svg>
