<svg width="40" height="40" viewBox="0 0 40 40" fill="none" xmlns="http://www.w3.org/2000/svg">
<g clip-path="url(#clip0_30_274)">
<path d="M17.7778 2.5H12.5833C10.7014 2.5 9.02083 3.83594 8.39583 5.82812L0.215278 31.8125C0.0763889 32.2656 0 32.75 0 33.2344C0 35.5859 1.70139 37.5 3.79167 37.5H17.7778V32.5C17.7778 31.1172 18.7708 30 20 30C21.2292 30 22.2222 31.1172 22.2222 32.5V37.5H36.2083C38.3056 37.5 40 35.5859 40 33.2344C40 32.75 39.9236 32.2656 39.7847 31.8125L31.6042 5.82812C30.9722 3.83594 29.2986 2.5 27.4167 2.5H22.2222V7.5C22.2222 8.88281 21.2292 10 20 10C18.7708 10 17.7778 8.88281 17.7778 7.5V2.5ZM22.2222 17.5V22.5C22.2222 23.8828 21.2292 25 20 25C18.7708 25 17.7778 23.8828 17.7778 22.5V17.5C17.7778 16.1172 18.7708 15 20 15C21.2292 15 22.2222 16.1172 22.2222 17.5Z" fill="white"/>
</g>
<defs>
<clipPath id="clip0_30_274">
<rect width="40" height="40" fill="white"/>
</clipPath>
</defs>
</svg>
