<svg width="40" height="40" viewBox="0 0 40 40" fill="none" xmlns="http://www.w3.org/2000/svg">
<path d="M13.5 18C15.2239 18 16.8772 17.3152 18.0962 16.0962C19.3152 14.8772 20 13.2239 20 11.5C20 9.77609 19.3152 8.12279 18.0962 6.90381C16.8772 5.68482 15.2239 5 13.5 5C11.7761 5 10.1228 5.68482 8.90381 6.90381C7.68482 8.12279 7 9.77609 7 11.5C7 13.2239 7.68482 14.8772 8.90381 16.0962C10.1228 17.3152 11.7761 18 13.5 18ZM34 13C34 14.3261 33.4732 15.5979 32.5355 16.5355C31.5979 17.4732 30.3261 18 29 18C27.6739 18 26.4021 17.4732 25.4645 16.5355C24.5268 15.5979 24 14.3261 24 13C24 11.6739 24.5268 10.4021 25.4645 9.46447C26.4021 8.52678 27.6739 8 29 8C30.3261 8 31.5979 8.52678 32.5355 9.46447C33.4732 10.4021 34 11.6739 34 13ZM18 29C18 25.592 19.55 22.544 21.986 20.526C21.3811 20.1807 20.6965 19.9994 20 20H7C5.93913 20 4.92172 20.4214 4.17157 21.1716C3.42143 21.9217 3 22.9391 3 24C3 24 3 32 13.5 32C15.406 32 16.966 31.736 18.242 31.306C18.0803 30.548 17.9992 29.775 18 29ZM38 29C38 31.3869 37.0518 33.6761 35.364 35.364C33.6761 37.0518 31.3869 38 29 38C26.6131 38 24.3239 37.0518 22.636 35.364C20.9482 33.6761 20 31.3869 20 29C20 26.6131 20.9482 24.3239 22.636 22.636C24.3239 20.9482 26.6131 20 29 20C31.3869 20 33.6761 20.9482 35.364 22.636C37.0518 24.3239 38 26.6131 38 29ZM30 25C30 24.7348 29.8946 24.4804 29.7071 24.2929C29.5196 24.1054 29.2652 24 29 24C28.7348 24 28.4804 24.1054 28.2929 24.2929C28.1054 24.4804 28 24.7348 28 25V28H25C24.7348 28 24.4804 28.1054 24.2929 28.2929C24.1054 28.4804 24 28.7348 24 29C24 29.2652 24.1054 29.5196 24.2929 29.7071C24.4804 29.8946 24.7348 30 25 30H28V33C28 33.2652 28.1054 33.5196 28.2929 33.7071C28.4804 33.8946 28.7348 34 29 34C29.2652 34 29.5196 33.8946 29.7071 33.7071C29.8946 33.5196 30 33.2652 30 33V30H33C33.2652 30 33.5196 29.8946 33.7071 29.7071C33.8946 29.5196 34 29.2652 34 29C34 28.7348 33.8946 28.4804 33.7071 28.2929C33.5196 28.1054 33.2652 28 33 28H30V25Z" fill="white"/>
</svg>
