<svg width="103" height="103" viewBox="0 0 103 103" fill="none" xmlns="http://www.w3.org/2000/svg">
<path d="M0 10C0 4.47715 4.47715 0 10 0H93C98.5229 0 103 4.47715 103 10V93C103 98.5229 98.5229 103 93 103H10C4.47715 103 0 98.5229 0 93V10Z" fill="#D35D2D"/>
<path d="M68.3262 30.5L62 36.8263V37.2987L68.3262 43.625H77.75V48.875H66.1737L62 44.7013V51.5H59.375C57.9826 51.5 56.6472 50.9469 55.6627 49.9623C54.6781 48.9777 54.125 47.6424 54.125 46.25V39.6875H45.8825C45.6462 40.6588 45.2525 41.5775 44.7275 42.4438L59.8475 69.875H72.5C73.8924 69.875 75.2277 70.4281 76.2123 71.4127C77.1969 72.3973 77.75 73.7326 77.75 75.125V77.75H25.25V75.125C25.25 73.7326 25.8031 72.3973 26.7877 71.4127C27.7722 70.4281 29.1076 69.875 30.5 69.875H47.8512L35.54 47.5625C33.2413 47.5236 31.0187 46.7325 29.2124 45.3102C27.4062 43.8879 26.1158 41.9129 25.5387 39.6875C25.1959 38.3499 25.1203 36.9579 25.3162 35.5911C25.512 34.2243 25.9756 32.9095 26.6802 31.7221C27.3849 30.5346 28.3168 29.4978 29.4227 28.671C30.5286 27.8442 31.7867 27.2437 33.125 26.9038C38.7162 25.46 44.4387 28.82 45.8825 34.4375H54.125V27.875C54.125 26.4826 54.6781 25.1473 55.6627 24.1627C56.6472 23.1781 57.9826 22.625 59.375 22.625H62V29.4237L66.1737 25.25H77.75V30.5H68.3262ZM35.75 31.8125C34.3576 31.8125 33.0222 32.3656 32.0377 33.3502C31.0531 34.3348 30.5 35.6701 30.5 37.0625C30.5 38.4549 31.0531 39.7902 32.0377 40.7748C33.0222 41.7594 34.3576 42.3125 35.75 42.3125C37.1424 42.3125 38.4777 41.7594 39.4623 40.7748C40.4469 39.7902 41 38.4549 41 37.0625C41 35.6701 40.4469 34.3348 39.4623 33.3502C38.4777 32.3656 37.1424 31.8125 35.75 31.8125Z" fill="white"/>
</svg>
