<svg width="103" height="103" viewBox="0 0 103 103" fill="none" xmlns="http://www.w3.org/2000/svg">
<path d="M0 10C0 4.47715 4.47715 0 10 0H93C98.5229 0 103 4.47715 103 10V93C103 98.5229 98.5229 103 93 103H10C4.47715 103 0 98.5229 0 93V10Z" fill="#D35D2D"/>
<path d="M27.875 77.75V62C27.875 59.8125 28.6406 57.9531 30.1719 56.4219C31.7031 54.8906 33.5625 54.125 35.75 54.125H41C43.1875 54.125 45.0469 53.3594 46.5781 51.8281C48.1094 50.2969 48.875 48.4375 48.875 46.25C48.875 45.5063 48.623 44.8833 48.119 44.381C47.615 43.8787 46.992 43.6268 46.25 43.625C44.8062 43.625 43.5708 43.1114 42.5435 42.0841C41.5163 41.0569 41.0017 39.8205 41 38.375V25.25H56.75V30.5C61.8688 30.5 66.2114 32.2833 69.7779 35.8498C73.3444 39.4163 75.1268 43.758 75.125 48.875V51.5C75.125 56.6187 73.3426 60.9614 69.7779 64.5279C66.2131 68.0944 61.8705 69.8768 56.75 69.875H46.25C45.5063 69.875 44.8833 70.127 44.381 70.631C43.8787 71.135 43.6267 71.758 43.625 72.5V77.75H27.875Z" fill="white"/>
</svg>
