<svg width="103" height="103" viewBox="0 0 103 103" fill="none" xmlns="http://www.w3.org/2000/svg">
<path d="M0 10C0 4.47715 4.47715 0 10 0H93C98.5229 0 103 4.47715 103 10V93C103 98.5229 98.5229 103 93 103H10C4.47715 103 0 98.5229 0 93V10Z" fill="#D35D2D"/>
<path d="M27.875 65.2812V75.125H37.7187L66.7512 46.0662L56.9075 36.2225L27.875 65.2812ZM79.3512 68.195L68.195 79.3512L54.545 65.7012L59.1912 61.055L61.8162 63.68L68.3 57.17L72.0275 60.8975L68.195 64.625L70.9775 67.25L74.705 63.575L79.3512 68.195ZM37.3512 48.4287L23.6487 34.805L34.805 23.6487L39.425 28.295L32.9412 34.805L35.75 37.5875L42.2075 31.0775L45.935 34.805L42.2075 38.5062L44.8325 41.1312L37.3512 48.4287ZM74.3637 38.375C75.3875 37.3512 75.3875 35.75 74.3637 34.6737L68.2212 28.6362C67.25 27.6125 65.5437 27.6125 64.52 28.6362L59.69 33.44L69.5337 43.2837L74.3637 38.375Z" fill="white"/>
</svg>
