<svg width="50" height="50" viewBox="0 0 50 50" fill="none" xmlns="http://www.w3.org/2000/svg">
<rect width="50" height="50" rx="10" fill="white" fill-opacity="0.9"/>
<path fill-rule="evenodd" clip-rule="evenodd" d="M17.0862 15.9501C17.12 15.6662 17.2195 15.3942 17.3769 15.1556C17.5342 14.917 17.745 14.7183 17.9926 14.5755C18.2402 14.4327 18.5177 14.3495 18.803 14.3328C19.0883 14.316 19.3736 14.366 19.6362 14.4788C20.9637 15.0463 23.9387 16.3951 27.7137 18.5738C31.49 20.7538 34.1462 22.6576 35.3 23.5213C36.285 24.2601 36.2875 25.7251 35.3012 26.4663C34.1587 27.3251 31.535 29.2038 27.7137 31.4113C23.8887 33.6188 20.9487 34.9513 19.6337 35.5113C18.5012 35.9951 17.2337 35.2613 17.0862 34.0401C16.9137 32.6126 16.5912 29.3713 16.5912 24.9938C16.5912 20.6188 16.9125 17.3788 17.0862 15.9501Z" fill="#D35D2D"/>
</svg>
