<svg width="103" height="103" viewBox="0 0 103 103" fill="none" xmlns="http://www.w3.org/2000/svg">
<path d="M0 10C0 4.47715 4.47715 0 10 0H93C98.5229 0 103 4.47715 103 10V93C103 98.5229 98.5229 103 93 103H10C4.47715 103 0 98.5229 0 93V10Z" fill="#D35D2D"/>
<path d="M69.6125 75.125L55.2406 60.7531L60.7531 55.2406L75.125 69.6125L69.6125 75.125ZM33.3875 75.125L27.875 69.6125L45.9875 51.5L41.525 47.0375L39.6875 48.875L36.3406 45.5281V50.9094L34.5031 52.7469L26.5625 44.8063L28.4 42.9688H33.7813L30.5 39.6875L39.8188 30.3688C40.6938 29.4938 41.6344 28.8594 42.6406 28.4656C43.6469 28.0719 44.675 27.875 45.725 27.875C46.775 27.875 47.8031 28.0719 48.8094 28.4656C49.8156 28.8594 50.7563 29.4938 51.6313 30.3688L45.5938 36.4063L48.875 39.6875L47.0375 41.525L51.5 45.9875L57.4063 40.0813C57.2313 39.6 57.0895 39.0969 56.981 38.5719C56.8725 38.0469 56.8174 37.5219 56.8156 36.9969C56.8156 34.4156 57.702 32.2386 59.4748 30.4659C61.2475 28.6931 63.4236 27.8076 66.0031 27.8094C66.6594 27.8094 67.2833 27.875 67.8748 28.0063C68.4663 28.1375 69.0674 28.3344 69.6781 28.5969L63.1813 35.0938L67.9063 39.8188L74.4031 33.3219C74.7094 33.9344 74.9176 34.5355 75.0279 35.1253C75.1381 35.715 75.1924 36.3389 75.1906 36.9969C75.1906 39.5781 74.3051 41.7551 72.5341 43.5279C70.7631 45.3006 68.5861 46.1861 66.0031 46.1844C65.4781 46.1844 64.9531 46.1406 64.4281 46.0531C63.9031 45.9656 63.4 45.8125 62.9188 45.5938L33.3875 75.125Z" fill="white"/>
</svg>
