<svg width="40" height="40" viewBox="0 0 40 40" fill="none" xmlns="http://www.w3.org/2000/svg">
<path d="M4.99998 31.6666H6.66665V10.6C6.6667 10.0752 6.83188 9.56375 7.13878 9.13808C7.44569 8.71242 7.87877 8.39412 8.37665 8.2283L21.71 3.78496C22.0857 3.65981 22.4859 3.62572 22.8774 3.68551C23.2689 3.7453 23.6406 3.89726 23.9619 4.12886C24.2832 4.36047 24.5448 4.66509 24.7253 5.01764C24.9058 5.37019 24.9999 5.76057 25 6.15663V31.6666H26.6666V16.65C26.6667 16.5267 26.6941 16.405 26.7469 16.2937C26.7997 16.1823 26.8765 16.084 26.9718 16.0059C27.0671 15.9278 27.1786 15.8718 27.2982 15.8419C27.4178 15.8121 27.5425 15.8091 27.6633 15.8333L31.3233 16.5666C31.8898 16.6799 32.3997 16.9858 32.7661 17.4325C33.1325 17.8791 33.333 18.4389 33.3333 19.0166V31.6666H35C35.442 31.6666 35.8659 31.8422 36.1785 32.1548C36.4911 32.4673 36.6666 32.8913 36.6666 33.3333C36.6666 33.7753 36.4911 34.1992 36.1785 34.5118C35.8659 34.8244 35.442 35 35 35H4.99998C4.55795 35 4.13403 34.8244 3.82147 34.5118C3.50891 34.1992 3.33331 33.7753 3.33331 33.3333C3.33331 32.8913 3.50891 32.4673 3.82147 32.1548C4.13403 31.8422 4.55795 31.6666 4.99998 31.6666Z" fill="white"/>
</svg>
