<svg width="36" height="36" viewBox="0 0 36 36" fill="none" xmlns="http://www.w3.org/2000/svg">
<path fill-rule="evenodd" clip-rule="evenodd" d="M5.78339 10.4401C5.81039 11.8063 5.06699 13.6531 4.10039 14.6179C3.20346 15.5156 2.69965 16.7328 2.69965 18.0019C2.69965 19.2709 3.20346 20.4881 4.10039 21.3859C5.05439 22.3363 5.75639 23.9851 5.78339 25.3315C5.80859 26.5231 6.27479 27.7075 7.18379 28.6147C8.02244 29.455 9.14433 29.9524 10.3302 30.0097C11.754 30.0817 13.6188 30.9097 14.6268 31.9177C15.5245 32.814 16.7413 33.3175 18.0099 33.3175C19.2785 33.3175 20.4953 32.814 21.393 31.9177C22.401 30.9097 24.2658 30.0817 25.6896 30.0097C26.8755 29.9524 27.9973 29.455 28.836 28.6147C29.7103 27.7416 30.2117 26.5632 30.2346 25.3279C30.2616 23.9851 30.9546 22.3471 31.9068 21.3967C32.8071 20.4992 33.3141 19.2808 33.3161 18.0095C33.3181 16.7382 32.8151 15.5182 31.9176 14.6179C30.9528 13.6549 30.2076 11.8063 30.2364 10.4419C30.25 9.79766 30.1329 9.1574 29.8922 8.55971C29.6515 7.96201 29.2922 7.41928 28.836 6.96425C28.3632 6.49021 27.7959 6.121 27.171 5.88066C26.5461 5.64031 25.8776 5.53421 25.209 5.56925C23.9238 5.63405 22.302 5.01125 21.393 4.10045C20.4952 3.20352 19.2781 2.69971 18.009 2.69971C16.7399 2.69971 15.5228 3.20352 14.625 4.10045C13.7178 5.00945 12.0942 5.63405 10.809 5.56925C10.1407 5.53447 9.47253 5.64069 8.84796 5.88103C8.2234 6.12137 7.65639 6.49044 7.18379 6.96425C6.72781 7.41907 6.36866 7.96151 6.12798 8.55888C5.8873 9.15624 5.77008 9.79616 5.78339 10.4401ZM23.4738 11.9269C23.6805 12.0416 23.8627 12.1959 24.0098 12.381C24.1569 12.5662 24.266 12.7785 24.3311 13.0058C24.3961 13.2331 24.4157 13.471 24.3887 13.7059C24.3618 13.9409 24.2888 14.1682 24.174 14.3749L19.1916 23.3425C19.0625 23.5867 18.879 23.7979 18.6552 23.9599C18.33 24.1952 17.9354 24.315 17.5343 24.3003C17.1331 24.2857 16.7484 24.1373 16.4412 23.8789L11.475 19.9063C11.2904 19.7585 11.1367 19.5759 11.0227 19.3687C10.9086 19.1616 10.8365 18.934 10.8104 18.699C10.7844 18.464 10.8048 18.2262 10.8707 17.9991C10.9365 17.772 11.0465 17.5601 11.1942 17.3755C11.3419 17.1908 11.5246 17.0371 11.7317 16.9231C11.9389 16.8091 12.1664 16.737 12.4014 16.7109C12.6364 16.6848 12.8743 16.7053 13.1014 16.7711C13.3285 16.837 13.5404 16.9469 13.725 17.0947L17.0604 19.7641L21.0258 12.6253C21.1407 12.4187 21.2951 12.2367 21.4803 12.0898C21.6655 11.9429 21.8778 11.8339 22.1051 11.769C22.3325 11.7042 22.5703 11.6847 22.8052 11.7118C23.04 11.7389 23.2672 11.812 23.4738 11.9269Z" fill="white"/>
</svg>
