<svg width="48" height="48" viewBox="0 0 48 48" fill="none" xmlns="http://www.w3.org/2000/svg">
<rect width="48" height="48" rx="10" fill="#FA855A"/>
<path d="M15 13.3335H33C34.1069 13.3334 35.1718 13.7569 35.9763 14.5171C36.7809 15.2772 37.264 16.3164 37.3267 17.4215L37.3334 17.6668V30.3335C37.3334 31.4403 36.9099 32.5053 36.1498 33.3098C35.3896 34.1143 34.3504 34.5975 33.2454 34.6602L33 34.6668H15C13.8932 34.6669 12.8282 34.2434 12.0237 33.4833C11.2192 32.7231 10.736 31.6839 10.6734 30.5788L10.6667 30.3335V17.6668C10.6666 16.56 11.0901 15.4951 11.8502 14.6905C12.6104 13.886 13.6496 13.4028 14.7547 13.3402L15 13.3335ZM35.3334 20.4975L24.4667 26.2175C24.344 26.2823 24.2091 26.3209 24.0707 26.3308C23.9323 26.3406 23.7933 26.3216 23.6627 26.2748L23.5347 26.2188L12.6667 20.4988V30.3335C12.6667 30.9191 12.8869 31.4833 13.2836 31.914C13.6803 32.3448 14.2244 32.6106 14.808 32.6588L15 32.6668H33C33.5858 32.6668 34.1502 32.4464 34.581 32.0494C35.0118 31.6525 35.2775 31.108 35.3254 30.5242L35.3334 30.3335V20.4975ZM33 15.3335H15C14.4144 15.3335 13.8503 15.5537 13.4195 15.9504C12.9887 16.3471 12.7229 16.8912 12.6747 17.4748L12.6667 17.6668V18.2388L24 24.2042L35.3334 18.2375V17.6668C35.3333 17.081 35.1129 16.5167 34.716 16.0859C34.319 15.6551 33.7745 15.3894 33.1907 15.3415L33 15.3335Z" fill="white"/>
</svg>
