<svg width="85" height="85" viewBox="0 0 85 85" fill="none" xmlns="http://www.w3.org/2000/svg">
<g filter="url(#filter0_d_30_266)">
<rect x="5" y="5" width="75" height="75" rx="37.5" fill="#D35D2D" shape-rendering="crispEdges"/>
<path d="M36 40.5C37.7239 40.5 39.3772 39.8152 40.5962 38.5962C41.8152 37.3772 42.5 35.7239 42.5 34C42.5 32.2761 41.8152 30.6228 40.5962 29.4038C39.3772 28.1848 37.7239 27.5 36 27.5C34.2761 27.5 32.6228 28.1848 31.4038 29.4038C30.1848 30.6228 29.5 32.2761 29.5 34C29.5 35.7239 30.1848 37.3772 31.4038 38.5962C32.6228 39.8152 34.2761 40.5 36 40.5ZM56.5 35.5C56.5 36.8261 55.9732 38.0979 55.0355 39.0355C54.0979 39.9732 52.8261 40.5 51.5 40.5C50.1739 40.5 48.9021 39.9732 47.9645 39.0355C47.0268 38.0979 46.5 36.8261 46.5 35.5C46.5 34.1739 47.0268 32.9021 47.9645 31.9645C48.9021 31.0268 50.1739 30.5 51.5 30.5C52.8261 30.5 54.0979 31.0268 55.0355 31.9645C55.9732 32.9021 56.5 34.1739 56.5 35.5ZM40.5 51.5C40.5 48.092 42.05 45.044 44.486 43.026C43.8811 42.6807 43.1965 42.4994 42.5 42.5H29.5C28.4391 42.5 27.4217 42.9214 26.6716 43.6716C25.9214 44.4217 25.5 45.4391 25.5 46.5C25.5 46.5 25.5 54.5 36 54.5C37.906 54.5 39.466 54.236 40.742 53.806C40.5803 53.048 40.4992 52.275 40.5 51.5ZM60.5 51.5C60.5 53.8869 59.5518 56.1761 57.864 57.864C56.1761 59.5518 53.8869 60.5 51.5 60.5C49.1131 60.5 46.8239 59.5518 45.136 57.864C43.4482 56.1761 42.5 53.8869 42.5 51.5C42.5 49.1131 43.4482 46.8239 45.136 45.136C46.8239 43.4482 49.1131 42.5 51.5 42.5C53.8869 42.5 56.1761 43.4482 57.864 45.136C59.5518 46.8239 60.5 49.1131 60.5 51.5ZM52.5 47.5C52.5 47.2348 52.3946 46.9804 52.2071 46.7929C52.0196 46.6054 51.7652 46.5 51.5 46.5C51.2348 46.5 50.9804 46.6054 50.7929 46.7929C50.6054 46.9804 50.5 47.2348 50.5 47.5V50.5H47.5C47.2348 50.5 46.9804 50.6054 46.7929 50.7929C46.6054 50.9804 46.5 51.2348 46.5 51.5C46.5 51.7652 46.6054 52.0196 46.7929 52.2071C46.9804 52.3946 47.2348 52.5 47.5 52.5H50.5V55.5C50.5 55.7652 50.6054 56.0196 50.7929 56.2071C50.9804 56.3946 51.2348 56.5 51.5 56.5C51.7652 56.5 52.0196 56.3946 52.2071 56.2071C52.3946 56.0196 52.5 55.7652 52.5 55.5V52.5H55.5C55.7652 52.5 56.0196 52.3946 56.2071 52.2071C56.3946 52.0196 56.5 51.7652 56.5 51.5C56.5 51.2348 56.3946 50.9804 56.2071 50.7929C56.0196 50.6054 55.7652 50.5 55.5 50.5H52.5V47.5Z" fill="white"/>
</g>
<defs>
<filter id="filter0_d_30_266" x="0" y="0" width="85" height="85" filterUnits="userSpaceOnUse" color-interpolation-filters="sRGB">
<feFlood flood-opacity="0" result="BackgroundImageFix"/>
<feColorMatrix in="SourceAlpha" type="matrix" values="0 0 0 0 0 0 0 0 0 0 0 0 0 0 0 0 0 0 127 0" result="hardAlpha"/>
<feOffset/>
<feGaussianBlur stdDeviation="2.5"/>
<feComposite in2="hardAlpha" operator="out"/>
<feColorMatrix type="matrix" values="0 0 0 0 0 0 0 0 0 0 0 0 0 0 0 0 0 0 0.25 0"/>
<feBlend mode="normal" in2="BackgroundImageFix" result="effect1_dropShadow_30_266"/>
<feBlend mode="normal" in="SourceGraphic" in2="effect1_dropShadow_30_266" result="shape"/>
</filter>
</defs>
</svg>
