<svg width="85" height="85" viewBox="0 0 85 85" fill="none" xmlns="http://www.w3.org/2000/svg">
<g filter="url(#filter0_d_27_29)">
<rect x="5" y="5" width="75" height="75" rx="37.5" fill="#D35D2D" shape-rendering="crispEdges"/>
<path d="M35.4167 26.6667C35.4167 26.3352 35.285 26.0172 35.0505 25.7828C34.8161 25.5484 34.4982 25.4167 34.1667 25.4167C33.8351 25.4167 33.5172 25.5484 33.2828 25.7828C33.0484 26.0172 32.9167 26.3352 32.9167 26.6667V29.3C30.5167 29.4917 28.9433 29.9617 27.7867 31.12C26.6283 32.2767 26.1583 33.8517 25.965 36.25H59.035C58.8417 33.85 58.3717 32.2767 57.2133 31.12C56.0567 29.9617 54.4817 29.4917 52.0833 29.2984V26.6667C52.0833 26.3352 51.9516 26.0172 51.7172 25.7828C51.4828 25.5484 51.1649 25.4167 50.8333 25.4167C50.5018 25.4167 50.1839 25.5484 49.9494 25.7828C49.715 26.0172 49.5833 26.3352 49.5833 26.6667V29.1884C48.475 29.1667 47.2317 29.1667 45.8333 29.1667H39.1667C37.7683 29.1667 36.525 29.1667 35.4167 29.1884V26.6667Z" fill="white"/>
<path fill-rule="evenodd" clip-rule="evenodd" d="M25.8333 42.5C25.8333 41.1017 25.8333 39.8583 25.855 38.75H59.145C59.1667 39.8583 59.1667 41.1017 59.1667 42.5V45.8333C59.1667 52.1183 59.1667 55.2617 57.2133 57.2133C55.26 59.165 52.1183 59.1667 45.8333 59.1667H39.1667C32.8817 59.1667 29.7383 59.1667 27.7867 57.2133C25.835 55.26 25.8333 52.1183 25.8333 45.8333V42.5ZM50.8333 45.8333C51.2754 45.8333 51.6993 45.6577 52.0118 45.3452C52.3244 45.0326 52.5 44.6087 52.5 44.1667C52.5 43.7246 52.3244 43.3007 52.0118 42.9882C51.6993 42.6756 51.2754 42.5 50.8333 42.5C50.3913 42.5 49.9674 42.6756 49.6548 42.9882C49.3423 43.3007 49.1667 43.7246 49.1667 44.1667C49.1667 44.6087 49.3423 45.0326 49.6548 45.3452C49.9674 45.6577 50.3913 45.8333 50.8333 45.8333ZM50.8333 52.5C51.2754 52.5 51.6993 52.3244 52.0118 52.0118C52.3244 51.6993 52.5 51.2754 52.5 50.8333C52.5 50.3913 52.3244 49.9674 52.0118 49.6548C51.6993 49.3423 51.2754 49.1667 50.8333 49.1667C50.3913 49.1667 49.9674 49.3423 49.6548 49.6548C49.3423 49.9674 49.1667 50.3913 49.1667 50.8333C49.1667 51.2754 49.3423 51.6993 49.6548 52.0118C49.9674 52.3244 50.3913 52.5 50.8333 52.5ZM44.1667 44.1667C44.1667 44.6087 43.9911 45.0326 43.6785 45.3452C43.3659 45.6577 42.942 45.8333 42.5 45.8333C42.058 45.8333 41.634 45.6577 41.3215 45.3452C41.0089 45.0326 40.8333 44.6087 40.8333 44.1667C40.8333 43.7246 41.0089 43.3007 41.3215 42.9882C41.634 42.6756 42.058 42.5 42.5 42.5C42.942 42.5 43.3659 42.6756 43.6785 42.9882C43.9911 43.3007 44.1667 43.7246 44.1667 44.1667ZM44.1667 50.8333C44.1667 51.2754 43.9911 51.6993 43.6785 52.0118C43.3659 52.3244 42.942 52.5 42.5 52.5C42.058 52.5 41.634 52.3244 41.3215 52.0118C41.0089 51.6993 40.8333 51.2754 40.8333 50.8333C40.8333 50.3913 41.0089 49.9674 41.3215 49.6548C41.634 49.3423 42.058 49.1667 42.5 49.1667C42.942 49.1667 43.3659 49.3423 43.6785 49.6548C43.9911 49.9674 44.1667 50.3913 44.1667 50.8333ZM34.1667 45.8333C34.6087 45.8333 35.0326 45.6577 35.3452 45.3452C35.6577 45.0326 35.8333 44.6087 35.8333 44.1667C35.8333 43.7246 35.6577 43.3007 35.3452 42.9882C35.0326 42.6756 34.6087 42.5 34.1667 42.5C33.7246 42.5 33.3007 42.6756 32.9882 42.9882C32.6756 43.3007 32.5 43.7246 32.5 44.1667C32.5 44.6087 32.6756 45.0326 32.9882 45.3452C33.3007 45.6577 33.7246 45.8333 34.1667 45.8333ZM34.1667 52.5C34.6087 52.5 35.0326 52.3244 35.3452 52.0118C35.6577 51.6993 35.8333 51.2754 35.8333 50.8333C35.8333 50.3913 35.6577 49.9674 35.3452 49.6548C35.0326 49.3423 34.6087 49.1667 34.1667 49.1667C33.7246 49.1667 33.3007 49.3423 32.9882 49.6548C32.6756 49.9674 32.5 50.3913 32.5 50.8333C32.5 51.2754 32.6756 51.6993 32.9882 52.0118C33.3007 52.3244 33.7246 52.5 34.1667 52.5Z" fill="white"/>
</g>
<defs>
<filter id="filter0_d_27_29" x="0" y="0" width="85" height="85" filterUnits="userSpaceOnUse" color-interpolation-filters="sRGB">
<feFlood flood-opacity="0" result="BackgroundImageFix"/>
<feColorMatrix in="SourceAlpha" type="matrix" values="0 0 0 0 0 0 0 0 0 0 0 0 0 0 0 0 0 0 127 0" result="hardAlpha"/>
<feOffset/>
<feGaussianBlur stdDeviation="2.5"/>
<feComposite in2="hardAlpha" operator="out"/>
<feColorMatrix type="matrix" values="0 0 0 0 0 0 0 0 0 0 0 0 0 0 0 0 0 0 0.25 0"/>
<feBlend mode="normal" in2="BackgroundImageFix" result="effect1_dropShadow_27_29"/>
<feBlend mode="normal" in="SourceGraphic" in2="effect1_dropShadow_27_29" result="shape"/>
</filter>
</defs>
</svg>
