<svg width="48" height="48" viewBox="0 0 48 48" fill="none" xmlns="http://www.w3.org/2000/svg">
<rect width="48" height="48" rx="10" fill="#FA855A"/>
<path d="M24 16C23.0111 16 22.0444 16.2932 21.2221 16.8427C20.3999 17.3921 19.759 18.173 19.3806 19.0866C19.0022 20.0002 18.9031 21.0055 19.0961 21.9755C19.289 22.9454 19.7652 23.8363 20.4645 24.5355C21.1637 25.2348 22.0546 25.711 23.0245 25.9039C23.9945 26.0969 24.9998 25.9978 25.9134 25.6194C26.827 25.241 27.6079 24.6001 28.1573 23.7779C28.7068 22.9556 29 21.9889 29 21C29 19.6739 28.4732 18.4021 27.5355 17.4645C26.5979 16.5268 25.3261 16 24 16ZM24 24C23.4067 24 22.8266 23.8241 22.3333 23.4944C21.8399 23.1648 21.4554 22.6962 21.2284 22.1481C21.0013 21.5999 20.9419 20.9967 21.0576 20.4147C21.1734 19.8328 21.4591 19.2982 21.8787 18.8787C22.2982 18.4591 22.8328 18.1734 23.4147 18.0576C23.9967 17.9419 24.5999 18.0013 25.1481 18.2284C25.6962 18.4554 26.1648 18.8399 26.4944 19.3333C26.8241 19.8266 27 20.4067 27 21C27 21.7956 26.6839 22.5587 26.1213 23.1213C25.5587 23.6839 24.7956 24 24 24ZM24 10C21.0836 10.0033 18.2877 11.1633 16.2255 13.2255C14.1633 15.2877 13.0033 18.0836 13 21C13 24.925 14.8138 29.085 18.25 33.0312C19.794 34.8144 21.5318 36.4202 23.4312 37.8188C23.5994 37.9365 23.7997 37.9997 24.005 37.9997C24.2103 37.9997 24.4106 37.9365 24.5788 37.8188C26.4747 36.4196 28.2091 34.8139 29.75 33.0312C33.1812 29.085 35 24.925 35 21C34.9967 18.0836 33.8367 15.2877 31.7745 13.2255C29.7123 11.1633 26.9164 10.0033 24 10ZM24 35.75C21.9338 34.125 15 28.1562 15 21C15 18.6131 15.9482 16.3239 17.636 14.636C19.3239 12.9482 21.6131 12 24 12C26.3869 12 28.6761 12.9482 30.364 14.636C32.0518 16.3239 33 18.6131 33 21C33 28.1537 26.0662 34.125 24 35.75Z" fill="white"/>
</svg>
