<svg width="48" height="48" viewBox="0 0 48 48" fill="none" xmlns="http://www.w3.org/2000/svg">
<rect width="48" height="48" rx="10" fill="#FA855A"/>
<path d="M32.5334 35.6667H32.2267C28.7714 35.2922 25.4517 34.1141 22.5334 32.2267C19.8221 30.4989 17.5199 28.2011 15.7867 25.4933C13.8953 22.5671 12.7171 19.2379 12.3467 15.7733C12.3042 15.3601 12.3462 14.9426 12.4699 14.5461C12.5937 14.1496 12.7967 13.7824 13.0667 13.4667C13.3293 13.1468 13.6534 12.8828 14.0198 12.6904C14.3863 12.498 14.7876 12.3812 15.2 12.3467H18.6667C19.4175 12.3474 20.1433 12.6166 20.713 13.1057C21.2827 13.5947 21.6588 14.2713 21.7734 15.0133C21.9001 15.9665 22.1372 16.9017 22.48 17.8C22.6886 18.3645 22.7317 18.9769 22.6041 19.565C22.4766 20.1531 22.1837 20.6926 21.76 21.12L20.9467 21.9333C22.2273 23.9549 23.945 25.6636 25.9734 26.9333L26.7867 26.1333C27.2141 25.7096 27.7536 25.4168 28.3417 25.2893C28.9299 25.1617 29.5422 25.2048 30.1067 25.4133C31.0061 25.7528 31.9409 25.9898 32.8934 26.12C33.6481 26.2335 34.3354 26.6185 34.8264 27.2027C35.3174 27.787 35.5783 28.5304 35.56 29.2933V32.4933C35.56 33.3256 35.2303 34.1239 34.6431 34.7137C34.0559 35.3034 33.2589 35.6365 32.4267 35.64L32.5334 35.6667ZM18.6667 14.3333H15.48C15.3236 14.3437 15.1708 14.3857 15.031 14.4567C14.8912 14.5277 14.7673 14.6264 14.6667 14.7467C14.5688 14.8594 14.4947 14.9907 14.4489 15.1328C14.403 15.2748 14.3864 15.4247 14.4 15.5733C14.7248 18.7154 15.7795 21.738 17.48 24.4C19.0489 26.8623 21.1378 28.9512 23.6 30.52C26.263 32.2398 29.2893 33.317 32.44 33.6667C32.6038 33.6751 32.7676 33.6499 32.9212 33.5925C33.0749 33.5352 33.2151 33.447 33.3334 33.3333C33.5457 33.1157 33.6652 32.8241 33.6667 32.52V29.3333C33.6727 29.0527 33.5756 28.7797 33.3937 28.5659C33.2119 28.3521 32.958 28.2124 32.68 28.1733C31.5785 28.0255 30.4964 27.7572 29.4534 27.3733C29.2479 27.2965 29.0248 27.2795 28.81 27.3244C28.5953 27.3692 28.3976 27.474 28.24 27.6267L26.9067 28.96C26.7505 29.1123 26.5494 29.2101 26.3332 29.2389C26.117 29.2677 25.8973 29.226 25.7067 29.12C22.8616 27.5123 20.5066 25.162 18.8934 22.32C18.7829 22.1306 18.7387 21.9099 18.7677 21.6926C18.7967 21.4753 18.8972 21.2738 19.0534 21.12L20.3867 19.7867C20.5396 19.632 20.6448 19.4367 20.6897 19.2239C20.7346 19.0111 20.7174 18.7899 20.64 18.5867C20.2552 17.5439 19.9869 16.4618 19.84 15.36C19.8069 15.0737 19.6685 14.81 19.4516 14.6202C19.2347 14.4304 18.9549 14.3281 18.6667 14.3333Z" fill="white"/>
</svg>
