<svg width="85" height="85" viewBox="0 0 85 85" fill="none" xmlns="http://www.w3.org/2000/svg">
<g filter="url(#filter0_d_30_160)">
<rect x="5" y="5" width="75" height="75" rx="37.5" fill="#D35D2D" shape-rendering="crispEdges"/>
<g clip-path="url(#clip0_30_160)">
<path d="M40.2778 25H35.0833C33.2014 25 31.5208 26.3359 30.8958 28.3281L22.7153 54.3125C22.5764 54.7656 22.5 55.25 22.5 55.7344C22.5 58.0859 24.2014 60 26.2917 60H40.2778V55C40.2778 53.6172 41.2708 52.5 42.5 52.5C43.7292 52.5 44.7222 53.6172 44.7222 55V60H58.7083C60.8056 60 62.5 58.0859 62.5 55.7344C62.5 55.25 62.4236 54.7656 62.2847 54.3125L54.1042 28.3281C53.4722 26.3359 51.7986 25 49.9167 25H44.7222V30C44.7222 31.3828 43.7292 32.5 42.5 32.5C41.2708 32.5 40.2778 31.3828 40.2778 30V25ZM44.7222 40V45C44.7222 46.3828 43.7292 47.5 42.5 47.5C41.2708 47.5 40.2778 46.3828 40.2778 45V40C40.2778 38.6172 41.2708 37.5 42.5 37.5C43.7292 37.5 44.7222 38.6172 44.7222 40Z" fill="white"/>
</g>
</g>
<defs>
<filter id="filter0_d_30_160" x="0" y="0" width="85" height="85" filterUnits="userSpaceOnUse" color-interpolation-filters="sRGB">
<feFlood flood-opacity="0" result="BackgroundImageFix"/>
<feColorMatrix in="SourceAlpha" type="matrix" values="0 0 0 0 0 0 0 0 0 0 0 0 0 0 0 0 0 0 127 0" result="hardAlpha"/>
<feOffset/>
<feGaussianBlur stdDeviation="2.5"/>
<feComposite in2="hardAlpha" operator="out"/>
<feColorMatrix type="matrix" values="0 0 0 0 0 0 0 0 0 0 0 0 0 0 0 0 0 0 0.25 0"/>
<feBlend mode="normal" in2="BackgroundImageFix" result="effect1_dropShadow_30_160"/>
<feBlend mode="normal" in="SourceGraphic" in2="effect1_dropShadow_30_160" result="shape"/>
</filter>
<clipPath id="clip0_30_160">
<rect width="40" height="40" fill="white" transform="translate(22.5 22.5)"/>
</clipPath>
</defs>
</svg>
