<svg width="85" height="85" viewBox="0 0 85 85" fill="none" xmlns="http://www.w3.org/2000/svg">
<g filter="url(#filter0_d_30_255)">
<rect x="5" y="5" width="75" height="75" rx="37.5" fill="#D35D2D" shape-rendering="crispEdges"/>
<path d="M27.5 54.1667H29.1666V33.1C29.1667 32.5753 29.3319 32.0638 29.6388 31.6381C29.9457 31.2125 30.3788 30.8942 30.8766 30.7284L44.21 26.285C44.5857 26.1599 44.9859 26.1258 45.3774 26.1856C45.7689 26.2454 46.1406 26.3973 46.4619 26.6289C46.7832 26.8605 47.0448 27.1652 47.2253 27.5177C47.4058 27.8702 47.4999 28.2606 47.5 28.6567V54.1667H49.1666V39.15C49.1667 39.0268 49.1941 38.9051 49.2469 38.7937C49.2997 38.6823 49.3765 38.5841 49.4718 38.5059C49.5671 38.4278 49.6786 38.3718 49.7982 38.342C49.9178 38.3122 50.0425 38.3092 50.1633 38.3334L53.8233 39.0667C54.3898 39.1799 54.8997 39.4859 55.2661 39.9325C55.6325 40.3792 55.833 40.939 55.8333 41.5167V54.1667H57.5C57.942 54.1667 58.3659 54.3423 58.6785 54.6548C58.9911 54.9674 59.1666 55.3913 59.1666 55.8334C59.1666 56.2754 58.9911 56.6993 58.6785 57.0119C58.3659 57.3244 57.942 57.5 57.5 57.5H27.5C27.058 57.5 26.634 57.3244 26.3215 57.0119C26.0089 56.6993 25.8333 56.2754 25.8333 55.8334C25.8333 55.3913 26.0089 54.9674 26.3215 54.6548C26.634 54.3423 27.058 54.1667 27.5 54.1667Z" fill="white"/>
</g>
<defs>
<filter id="filter0_d_30_255" x="0" y="0" width="85" height="85" filterUnits="userSpaceOnUse" color-interpolation-filters="sRGB">
<feFlood flood-opacity="0" result="BackgroundImageFix"/>
<feColorMatrix in="SourceAlpha" type="matrix" values="0 0 0 0 0 0 0 0 0 0 0 0 0 0 0 0 0 0 127 0" result="hardAlpha"/>
<feOffset/>
<feGaussianBlur stdDeviation="2.5"/>
<feComposite in2="hardAlpha" operator="out"/>
<feColorMatrix type="matrix" values="0 0 0 0 0 0 0 0 0 0 0 0 0 0 0 0 0 0 0.25 0"/>
<feBlend mode="normal" in2="BackgroundImageFix" result="effect1_dropShadow_30_255"/>
<feBlend mode="normal" in="SourceGraphic" in2="effect1_dropShadow_30_255" result="shape"/>
</filter>
</defs>
</svg>
